<?xml version="1.0" encoding="UTF-8"?>
<svg id="Livello_1" data-name="Livello 1" xmlns="http://www.w3.org/2000/svg" viewBox="0 0 208.16 620.96">
  <defs>
    <style>
      .cls-1 {
        fill: #fff;
      }
    </style>
  </defs>
  <path d="M183.35,287.98c-.3-.73-.59-1.32-1.08-2.12l-.13,2.19-.1,3.66c-.01.52-.78,1.17-1.36,1.09l.54-.77c.21-1.3-.56-5.13-1.29-6.36l-.32-.08c.08-.42.17-.92.21-1.26l.19-1.73c.42-3.75,1.71-2.37,1.19-3.95-.09-.26-.14-.89.03-1.07.46-.51,1.31-.78,1.47-.68.14.09.31.28.47.51,1.07,1.51.08,1.58.84,2.58.31.41.52.81.66,1.3.78,2.58-.77,3.1.24,7.29l.6,2.46c.48,1.99.97.98.96,2.28-1.2-.39-1.11-.94-1.88-2.49-.2-.4-.43-.85-.59-1.23l-.66-1.62Z"/>
  <path d="M190.71,615.53c-.3-.73-.59-1.32-1.08-2.12l-.13,2.19-.1,3.66c-.01.52-.78,1.17-1.36,1.09l.54-.77c.21-1.3-.56-5.13-1.29-6.36l-.32-.08c.08-.42.17-.92.21-1.26l.19-1.73c.41-3.64,1.75-2.55,1.2-3.92-.29-.73,0-1.39.76-1.62.19-.06.55-.14.71-.16s.36.31.5.51c1.11,1.71.05,1.56.84,2.59.31.41.52.81.66,1.3.78,2.58-.77,3.1.24,7.29l.6,2.46c.48,1.99.97.98.96,2.28-1.2-.4-1.11-.94-1.88-2.49-.2-.39-.43-.85-.59-1.23l-.66-1.62Z"/>
  <path d="M177.47,594.14c-.05-.16-.41-.46-.43-.43-.14.83-.28,1.62-.37,2.4l-.29,2.66c-.07.6-.26,1.09-.69,1.41l-.35.24c-.07.05-.44-.19-.38-.27,1.59-2.14.55-1.45.53-3.26-.02-1.37-.24-2.73-.77-3.94,0-1.76.41-3.5,1.31-5.07.34-.59.78-.81.63-1.65-.07-.38.13-.9.41-1.19.38-.39,1.11-.67,1.55-.27.9.83-.08,2.26.5,2.77,1.82,1.61.36,4.7.31,5.7-.05,1.14-.15,2.34.05,3.4l.44,2.38c.31,1.66,1.42,2.52.68,2.22-.32-.13-.92-.63-1.03-.92l-.99-2.7-1.11-3.49Z"/>
  <path d="M170.06,266.47c-.02-.06-.31-.3-.39-.35-.46,2.13-.3,2.58-.63,4.72l-.2,1.32-.78.65c-.2.17-.6-.2-.38-.4,1.42-1.28.39-1.41.39-4.32,0-.89-.58-2-.69-2.82-.07-.47,0-1.52.16-1.99l.69-2.15c.14-.43.62-1.04.89-1.39.59-.76-.31-1.3.59-2.26.38-.4,1.12-.67,1.55-.27.9.84-.08,2.26.5,2.77,1.82,1.61.36,4.69.32,5.7-.05,1.13-.14,2.35.05,3.39l.52,2.75c.21,1.14.21.54.79,1.74.07.15-.79.37-1.45-1.42l-.78-2.1-1.14-3.59Z"/>
  <path d="M169.63,246.87l-.29,2.4c-.23,1.9.26,2.6-.82,3.54-.13.11-.74.21-.67.07.13-.27.49-.68.51-.84.15-1.26-.21-5.25-1.06-6.4l.23-2.03c.07-.62.44-1.43.64-2.11s.54-1.18,1.06-1.67l.09-1.58c.03-.48,1.09-1.13,1.52-.95.81.35.87,1.23.81,2.04-.13,1.64,1.64.61.72,5.33l-.32,1.66c-.33,1.69.42,3.22.58,5.27.15,1.85,1.08,1.25.77,2.28-.46-.19-.93-.49-1.06-.84l-1.07-2.87-1.14-3.43c-.02-.07-.3-.23-.35-.26-.09-.05-.15.24-.16.39Z"/>
  <path d="M176.98,574.42l-.29,2.4c-.23,1.92.26,2.59-.84,3.56-.13.11-.71.18-.65.04.32-.74.88-.62.44-3.3l-.44-2.7c-.05-.33-.49-.94-.5-1.24-.02-2.08.27-2.36.81-4.13.2-.65.55-1.17,1.06-1.66l.09-1.57c.03-.5,1.09-1.14,1.53-.96.81.35.87,1.23.81,2.04-.13,1.69,1.62.48.72,5.33l-.34,1.83c-.2,1.05.11,2.29.34,3.34.55,2.48-.11,2.08,1.14,3.64l-.39.38c-.46-.39-.77-.81-.95-1.3l-.88-2.38-1.14-3.44c-.03-.08-.3-.23-.35-.26-.09-.05-.15.24-.16.39Z"/>
  <path d="M200.98,356.44l-.23,1.65-.25,1.88c-.16,1.2-.09,2.96-1.79,2.78l.73-.91.06-3.74c0-.5-.13-1.11-.26-1.54l-.4-1.34c.37-1.71.31-2.37,1.2-3.97.06-.75.55-1.25,1.31-1.39-.04-.65-.11-1.5.17-2.07.25-.49,1.43-.53,1.77-.17.39.42.48,1.11.42,1.68-.16,1.65,1.18,1.46.53,4.22l-.58,2.49c-.7,3-.06,3.23.07,5.35.18,2.85.62.75.51,2.68-.73-.42-.97-1.02-1.19-1.78-.29-1.01-.62-1.92-.82-2.99.06.34-.97-4.75-1.24-2.84Z"/>
  <path d="M158.19,226.6l-.04,3.13c-.02,2,.83,2.8-.26,3.63l-.33.26c-.81.62.39-.69-.14-2.44-.24-.8-.39-1.79-.57-2.59-.03-.12-1.02-2.01-1.06-2.36l-.17-1.29c-.06-.44-.04-.96.04-1.4l.33-1.89c.3-1.69,1.11-.1.48-2.69-.07-.29.26-.82.51-.99s1-.3,1.26-.13c1.09.71.43,1.53,1.43,2.86,1.79,2.39.16,4.87,1.32,8.41l.5,1.53c.61,1.83.26,1.14,1.47,2.73l-.45.31c-.51-.18-2.12-3.01-2.33-3.44l-1.61-3.29-.39-.35Z"/>
  <path d="M193.63,28.89l-.23,1.65-.25,1.88c-.16,1.2-.09,2.96-1.79,2.78l.73-.91.06-3.74c0-.5-.13-1.11-.26-1.54l-.41-1.33c.38-1.73.3-2.36,1.2-3.98.06-.75.55-1.25,1.31-1.39-.04-.65-.11-1.5.17-2.07.25-.49,1.43-.53,1.77-.17.39.42.48,1.12.42,1.68-.16,1.65,1.18,1.45.53,4.22l-.58,2.49c-.7,3-.06,3.23.07,5.35.18,2.85.62.74.51,2.68-.74-.42-.97-1.01-1.19-1.77-.29-1.01-.62-1.92-.82-2.99.06.34-.97-4.75-1.24-2.84Z"/>
  <path d="M165.55,554.15l-.04,3.13c-.03,2,.83,2.8-.26,3.63l-.33.26c-.81.62.39-.69-.14-2.44-.24-.79-.4-1.82-.56-2.57-.04-.16-1-1.97-1.05-2.38l-.18-1.3c-.06-.43-.04-.96.04-1.4l.34-1.88c.31-1.72,1.11-.07.48-2.69-.07-.29.27-.82.51-.98s1-.3,1.25-.14c1.14.75.43,1.52,1.44,2.87,1.79,2.39.15,4.87,1.32,8.41l.5,1.53c.6,1.83.26,1.15,1.47,2.73l-.45.31c-.51-.19-2.11-3.01-2.33-3.44l-1.61-3.29-.39-.35Z"/>
  <path d="M146.48,246.35c-.29-.41.45,4.21.29,3.55l.4,1.64c.06.23.19.81.06.98l-.73,1c-.12.01-.33.04-.31-.03l.1-.44c.08-.34.21-.94.11-1.25l-.7-1.99c-.88-2.48-1.79-3.41-1.87-3.62-.4-1.12-.13-3.92.06-5.17.07-.5.71-.94.28-1.58-.22-.32-.22-1-.04-1.28.22-.34,1.08-.76,1.38-.52.67.55.94,1.19,1.12,1.95.24,1.01,1.03.59,1.32,1.68l.57,2.16.06,2.17c.03.96.49,1.98.87,2.82l1.33,2.97c.38.84.59.37,1.16,1.42.05.09-.47.2-.55.14-1.07-.82-2.61-3.13-3.4-4.42l-.77-1.28c-.12-.19-.31-.41-.74-.9Z"/>
  <path d="M153.84,573.9c-.29-.41.45,4.19.3,3.56l.39,1.58c.06.26.2.85.07,1.03l-.73.98c-.12.02-.33.05-.31-.02l.1-.44c.08-.34.21-.94.11-1.25l-.7-1.99c-.87-2.48-1.8-3.41-1.87-3.62-.4-1.13-.13-3.91.06-5.17.07-.5.71-.94.27-1.58-.21-.31-.21-1-.03-1.28.21-.33,1.08-.76,1.37-.52.66.54.95,1.23,1.12,1.93.25,1.06,1.03.6,1.32,1.71l.57,2.16.06,2.17c.03.96.49,1.98.87,2.82l1.33,2.98c.14.31.63.74.9,1.02l.26.28c-.1-.11-.02,1.3-1.95-1.23-.75-.99-1.37-1.89-2-2.94l-.77-1.28c-.12-.19-.31-.41-.74-.9Z"/>
  <path d="M140.68,554.2c-.76,1.88-.16,2.54-.58,4.21-.13.53-.16.94-.11,1.49.05.51-.79,1.01-1.22.74.46-.69.71-1.12.58-1.69-.74-3.4.27-1.31-1.04-5.48-.12-.39-.07-.97,0-1.4l.21-1.11.58-2.4c.05-.21.5-.56.68-.64,1.4-.67-.63-2,.75-2.5l1.18-.43c1.45,1.7-.04,1.73,1.05,3.09.89,1.12.6,3.39.36,4.77-.19,1.08-.28,2.46-.09,3.57l.56,3.32c.24,1.4,1.63,1.85.51,1.99-.49-.54-.9-1.05-1.14-1.66l-.8-2.05c-.48-1.22-.83-3.2-1.49-3.81Z"/>
  <path d="M185.51,273.6c-1.49-2.01-2.19-5.79-3.51-7.62l-.21,3.18c-.05.69-.17,1.31-.13,2.08.02.48-.23,1.23-.57,1.5-.13.1-.61.11-.76.07.67-.81.7-1.55.42-2.45-.14-.43.1-1.37-.03-1.81l-.57-1.91c-.1-.34-.36-.87-.47-1.14l.16-1.66c.11-1.17.37-2.32.67-3.44l.76-.54.08-1.97c.02-.44,1.17-.94,1.58-.75.61.28.87,1.15.75,1.8-.23,1.25.58.7,1.01,2.48.24.96.2,1.85-.01,2.78l-.44,1.88c.05.23.2.81.23,1.05.07.85.17,1.8.34,2.67l.28,1.48c.4,2.07,2.07,2.39.41,2.32Z"/>
  <path d="M190.53,595.96c-.32-.96-.57-1.67-1.17-2.44l-.21,3.18c-.05.69-.17,1.31-.13,2.08.02.48-.23,1.23-.57,1.5-.13.1-.61.11-.76.07.67-.81.43-1.55.42-2.45l-.03-1.8-.57-1.91c-.1-.34-.36-.88-.46-1.14l.16-1.65c.11-1.17.37-2.32.67-3.44l.76-.54.08-1.97c.02-.44,1.17-.94,1.59-.75.58.26.86,1.14.74,1.8-.23,1.25.57.7,1.01,2.48.24.96.2,1.85-.01,2.78l-.44,1.88c.54,1.97.07,1.18.56,3.72l.28,1.46c.15.75.47,1.36,1.03,2.09l-.37.35c-.77-.6-1.03-1.45-1.39-2.3-.42-.96-.84-1.91-1.2-2.98Z"/>
  <path d="M133.32,226.65c-.76,1.88-.16,2.54-.58,4.21-.13.53-.16.94-.11,1.49.05.51-.79,1.01-1.22.74.46-.69.71-1.12.58-1.69-.74-3.41.27-1.31-1.04-5.48-.12-.39-.07-.97.01-1.4l.21-1.11.58-2.4c.05-.21.5-.56.68-.64,1.4-.67-.64-2,.76-2.51l1.17-.42c1.45,1.7-.04,1.73,1.05,3.09.35.44.46.98.54,1.56.33,2.46-.74,4.01-.28,6.78l.52,3.14c.17,1,1.45,2.5.76,2.18l-.35-.17c-.4-.44-.78-.97-1-1.51l-.81-2.05c-.48-1.22-.83-3.2-1.49-3.81Z"/>
  <path d="M73.1,266.41c.03.79.06,1.44.12,2.09l.21,2.09c.15,1.48.76.99-.33,2.44l-.28.24c-.06.06-.41-.05-.37-.13l.18-.39c.29-.63.28-1.42-.06-2.09-.81-1.63.08-.76-.75-2.48l-.68-1.4c-1.03-2.12-.77-2.46-.6-4.78.05-.68.2-1.2.63-1.73.72-.9-.95-1.74.41-2.69.2-.14.59-.31.78-.32s.66.27.75.46l.88,2.01c.33.76,1.13,1.38,1.2,2.26l.15,1.66c.12,1.31.1,2.97.61,4.37l1.26,3.46c.13.35.69.85,1.02,1.17l-.27.46c-1.07-.7-2.82-3.72-3.41-4.84l-.76-1.43c-.08-.14-.45-.37-.67-.42ZM74.49,263.28c.16,0,.22-.57.08-.66l-.5-.35-.04.72c0,.14.31.29.45.3Z"/>
  <path d="M80.45,593.96c.03.79.06,1.44.12,2.09l.2,2.09c.14,1.47.76.98-.33,2.44l-.28.24c-.06.06-.41-.05-.37-.13l.18-.39c.29-.63.28-1.42-.06-2.09-.81-1.63.08-.76-.75-2.48l-.68-1.4c-1.03-2.12-.77-2.46-.6-4.78.05-.68.2-1.2.63-1.73.72-.9-.95-1.74.41-2.69.2-.14.59-.31.78-.32s.66.27.75.46l.88,2.01c.33.76,1.13,1.38,1.2,2.26l.15,1.66c.12,1.32.1,2.97.61,4.37l1.25,3.43c.1.27.47.7.66.86l.33.27c.09.07-.09.43-.17.47-.86-.13-3-3.89-3.48-4.78l-.76-1.43c-.08-.15-.45-.37-.67-.42ZM81.85,590.83c.16.01.22-.57.08-.66l-.5-.35-.04.72c0,.14.31.29.45.3Z"/>
  <path d="M35.85,266.35c-.03-.15-.53-.27-.55-.16l-.08.53-.38,2.4-.25,1.67c-.14.97-.49,1.89-1.72,1.76l.86-1.04c.01-1.39.04-2.78-.03-4.2-.05-.85-.42-1.79-.41-2.64,0-.38.06-1.26.2-1.62l1.06-2.6c.12-.3.62-.69.95-.94l.17-1.38c.1-.79,1.03-1.42,1.8-.94.48.3.59,1.14.52,1.74-.19,1.67,1.2,1.55.49,4.6l-.58,2.5c-.25,1.09-.39,2.37-.21,3.44.42,2.46.07,2.19.86,4.06l-.53.14c-.38-.42-1.34-3.61-1.47-4.17l-.71-3.14Z"/>
  <path d="M43.21,593.91c-.03-.15-.53-.27-.55-.16l-.08.53-.38,2.4-.25,1.67c-.14.97-.49,1.89-1.72,1.76l.86-1.04c.01-1.39.04-2.77-.03-4.2-.05-.85-.42-1.79-.41-2.64,0-.38.06-1.26.2-1.62l1.06-2.6c.12-.29.63-.69.94-.94l.17-1.38c.1-.79,1.03-1.42,1.8-.94.48.3.59,1.14.52,1.74-.19,1.67,1.2,1.55.49,4.6l-.58,2.5c-.25,1.09-.39,2.37-.21,3.44.42,2.46.07,2.19.86,4.06l-.53.14c-.38-.42-1.34-3.61-1.47-4.17l-.71-3.14Z"/>
  <path d="M177.13,494.84c-.28-.04-.41-.09-.43-.03s-.09.28-.1.36l-.35,2.14-.34,1.84-.34,1.62-1.33.49.87-1.19.04-4.11-.48-1.66c-.43-.33.18-2.59.19-2.62l1.13-2.98.89-.51c.03-.57.05-1.16.14-1.68.14-.79,1.25-.84,1.85-.59.46.7.51,1.71.42,2.43-.03.28.51.85.57,1.14.14.69.14,1.86-.02,2.57-.68,3.02-.89,2.81-.85,6.06,0,.25.24.84.26,1.11.05.63.05,1.64.28,2.16l.47,1.06c-.78-.1-.98-.49-1.15-1.04l-.69-2.19c-.18-.59-.3-1.2-.45-1.82l-.61-2.57Z"/>
  <path d="M169.78,167.29c-.28-.04-.41-.09-.43-.03s-.09.28-.1.36l-.35,2.14-.34,1.84-.34,1.62-1.31.48.84-1.16c.1-1.36.1-2.77.05-4.13l-.47-1.66c-.1-.36-.21-.87-.14-1.18.13-.53.19-1.06.33-1.43l1.13-2.98.89-.51c.03-.57.05-1.16.14-1.68.14-.78,1.25-.83,1.85-.59.46.7.51,1.71.42,2.43-.03.28.51.85.57,1.14.14.69.14,1.86-.02,2.57-.68,3.02-.89,2.81-.85,6.05,0,.27.24.86.26,1.11.05.66.05,1.64.28,2.16l.47,1.06c-.78-.1-.98-.49-1.15-1.04l-.69-2.19c-.18-.58-.3-1.2-.45-1.82l-.61-2.57Z"/>
  <path d="M32.52,340.78c-.51-1.34-.99-3.98-1.59-4.2-.3.78-.7,4.59-.67,5.15.05.88-.46,1.44-1.34,1.44l.48-1c.23-.47,0-1.51,0-2.13-.02-1.59-.33-2.99-.86-4.48.22-1.83.55-3.27,1.41-4.96.24-.46.76-.69.64-1.35-.09-.53.05-1.11.35-1.39s1.24-.48,1.55-.14c1,1.1-.01,1.97.78,3.09s.7,2.4.33,3.66c-.66,2.29-.36,6.63.66,8.91l.22.48s-.55.58-1.22-1.17l-.73-1.92Z"/>
  <path d="M25.16,13.23c-.51-1.34-.99-3.98-1.59-4.2-.3.78-.7,4.59-.67,5.15.05.88-.46,1.44-1.34,1.44l.48-1c.23-.47,0-1.51,0-2.13-.02-1.59-.33-2.98-.86-4.48.21-1.83.55-3.27,1.41-4.96.24-.46.76-.69.64-1.35-.09-.53.05-1.11.35-1.39s1.24-.48,1.55-.14c1,1.1-.01,1.97.78,3.09s.7,2.4.33,3.66c-.66,2.29-.36,6.63.66,8.91l.22.48s-.55.59-1.22-1.17l-.73-1.92Z"/>
  <path d="M32.39,597.51c-.59-1.55-.79-3.56-1.46-3.8-.26,1.14-.36,2.08-.5,3.22-.33,2.72.09,2.6-.86,3.27l-.32.22c-.07.05-.42-.2-.36-.27,1.52-1.77.49-1.58.48-3.45,0-1.4-.29-2.65-.85-3.91.04-.4.1-1.18.21-1.59l.86-2.98c.08-.27.48-.64.72-.84.67-.56-.19-1.3.58-2.28.21-.26.98-.63,1.28-.44.73.45.86,1.41.78,2.28-.03.32.25.71.46,1.08,1.1,1.94-.05,4.03-.08,4.98l-.06,2.28c-.02.93.26,2.75.46,3.65.55,2.49.64.77.75,2.3-.56-.19-.84-.46-1-.89l-1.08-2.84Z"/>
  <path d="M25.04,269.95c-.58-1.54-.79-3.57-1.46-3.8-.26,1.14-.36,2.08-.5,3.22-.33,2.72.09,2.6-.86,3.27l-.32.22c-.07.05-.42-.2-.36-.27,1.52-1.76.49-1.59.48-3.45,0-1.4-.29-2.65-.85-3.91.04-.4.1-1.18.21-1.59l.86-2.98c.08-.26.48-.63.72-.83.67-.55-.19-1.33.57-2.27.21-.26.98-.63,1.28-.45.73.45.86,1.41.78,2.28-.03.32.25.71.46,1.08,1.1,1.94-.05,4.03-.08,4.98l-.06,2.28c-.02.94.26,2.74.46,3.65.54,2.46.68.83.73,2.26-.5-.09-.83-.44-.99-.85l-1.07-2.84Z"/>
  <path d="M203.47,615.13c-.31-.59-.59-.97-1.11-1.58-.34.76-.11,1.15.02,1.85.12.65.12,1.4.2,2.14.13,1.25.77,1.99-.49,3-.07.05-.33.08-.42.09-.74.15.81-.59.27-2.02-.34-.9-.53-1.66-.76-2.58-.54-2.16-1.86-2.15-1.58-5.47l.2-2.35.69-.78c.06-.97-.87-1.71.08-2.46.22-.18.89-.38,1.16-.25,1.46.7.54,1.93,1.95,3.04.34.37.82,2.62.84,3.06l.13,2.59c.08,1.62.95,3.09,1.33,4.32.27.87.67,1.51,1.3,2.15l.24.25s-.55.68-1.45-.69l-1.15-1.76c-.26-.4-.53-.84-.75-1.27l-.69-1.29ZM203.41,609.62c-.1-.14-.31.5-.23.64.09.15.29.47.41.43l.47-.16-.65-.91Z"/>
  <path d="M196.11,287.58c-.31-.59-.58-.96-1.11-1.58-.34.76-.11,1.15.02,1.85.12.65.12,1.4.2,2.14.13,1.25.77,1.99-.49,3-.07.05-.33.08-.42.09-.75.15.81-.58.27-2.02-.33-.9-.53-1.66-.76-2.58-.54-2.17-1.86-2.15-1.58-5.47l.2-2.35.69-.78c.06-.96-.87-1.72.08-2.46.23-.18.89-.39,1.15-.26,1.5.75.53,1.9,1.96,3.04,1.16,2.17.74,4.62.99,5.79l.36,1.71c.1.49.41,1.05.65,1.56.3.63.44,1.65.84,2.14l1.02,1.25c-.41.14-.99-.05-1.21-.37l-1.01-1.53c-.53-.8-1.01-1.59-1.46-2.43l-.4-.74ZM196.05,282.07c-.1-.14-.31.51-.22.65.08.12.29.46.41.42l.47-.16-.65-.91Z"/>
  <path d="M31.62,376.15c-.37.64-.2.85-.19,1.38l.07,4.55c0,.38-.67.93-1.13,1.03l.27-1.15c-.23-2.45-.53-4.13-1.6-6.28.31-1.91-.47-1.3.05-3.02s-.02-1.78.63-2.27c1.42-1.08-.42-1.84.73-2.93.32-.3,1.36-.39,1.56-.02,1.21,2.17-.04,1.24,1.17,2.94,1.41,1.98.2,5.59.78,7.53l.73,2.46c.15.5.17,1.06.39,1.4l.92,1.41c-.73.08-1.08-.42-1.38-.99l-1.48-2.8-.73-1.7-.8-1.56ZM33.22,372.57c0-.09-.41-.31-.43-.23l-.1.33c-.08.27.23.82.56.84l-.03-.93Z"/>
  <path d="M128.83,574.05l.07,3.85.12,2.01-1,1.09-.16-.37c.35-.58.43-1.24.29-1.84l-.67-2.91c-.2-.87-1.2-2.46-1.22-2.21l.05-.51.16-1.96.32-2.32c.15-1.09,1.39-.92.77-2.19-.29-.59-.13-1.23.53-1.5.23-.09.64-.19.84-.19.9.03,1.1,2.07,1.2,2.66l.67.56c.18.15.21.75.26,1.03.79,3.77-.65,2.71.98,8.35l.55,1.92c.11.37.71.96.98,1.26l-.19.44c-1.17-.34-3.2-5.04-3.64-6.1-.17-.41-.39-.69-.91-1.08Z"/>
  <path d="M24.26,48.6c-.37.64-.2.85-.19,1.38l.07,4.55c0,.38-.67.93-1.13,1.03l.27-1.15c-.23-2.45-.53-4.13-1.6-6.28.31-1.91-.47-1.3.05-3.02s-.02-1.78.63-2.27c1.42-1.08-.42-1.84.73-2.93.32-.3,1.36-.39,1.57-.02,1.21,2.17-.04,1.24,1.17,2.94,1.41,1.98.2,5.59.78,7.53l.73,2.46c.15.5.17,1.06.39,1.4l.92,1.41c-.73.08-1.08-.42-1.38-.99l-1.48-2.8-.73-1.7-.8-1.56ZM25.87,45.02c0-.08-.41-.3-.44-.23l-.1.32c-.08.28.22.82.56.84l-.03-.94Z"/>
  <path d="M126.34,253.53c-1.65.85-3.85-7-4.87-7l.09,4.03.07,1.69c.02.41-.83,1.05-1.14,1.17.31-1,.45-1.59.28-2.36l-.64-2.74c-.2-.86-1.2-2.46-1.23-2.21l.05-.51.16-1.96.32-2.32c.15-1.09,1.39-.92.77-2.19-.29-.59-.14-1.23.53-1.5.23-.09.64-.19.84-.19.92.03,1.09,2.13,1.17,2.53.19.92.54-.42.97,1.72.62,3.12-.24,3.68.42,6.22l.55,2.12.53,1.96,1.14,1.52Z"/>
  <path d="M61.83,267.8l-.59-1.18c-.03-.06-.12-.19-.18-.19h-.34s.04,1.92.04,1.92c.02,1.07.12,2.03.29,3.12.14.89-.62,1.51-1.17,1.58.17-.53.39-1.16.29-1.59l-.55-2.34c-.34-1.45-.53-1.96-1.4-3.31l-.08-.81c-.06-.67-.02-1.35.08-2.02l.28-1.83c.05-.31.37-.7.68-1.05.27-.3-.05-1.12-.12-1.59-.12-.76.93-1.36,1.61-1.41,1.03,1.63,1.02.99,1.05,2.78.67.36,1.08.96,1.18,1.71l.23,1.68c.07.5-.02,1.22,0,1.81l.09,2.36c0,.23.83,2.34,1.06,3.23.38,1.45.42,1.01,1.37,2.26.21.28-.56.83-1.85-1.42l-.76-1.33c-.22-.39-.42-.81-.63-1.22l-.58-1.16ZM62.42,263.35c.22-.23-.03-.9-.28-1.03l-.31.27c-.2.17.38.99.59.76Z"/>
  <path d="M69.18,595.35l-.59-1.18c-.03-.06-.12-.19-.18-.19h-.34s.04,1.92.04,1.92c.02,1.07.12,2.03.29,3.12.14.89-.62,1.51-1.17,1.58.17-.53.39-1.16.29-1.59l-.55-2.34c-.34-1.43-.54-1.99-1.41-3.31l-.07-.81c-.06-.66-.02-1.35.08-2.02l.28-1.86c.04-.29.36-.66.68-1.02.27-.3-.05-1.12-.12-1.59-.12-.76.93-1.36,1.61-1.42,1.03,1.63,1.02.98,1.05,2.78.68.36,1.08.96,1.18,1.71l.23,1.68c.07.5-.02,1.22,0,1.81l.09,2.36c0,.23.83,2.34,1.06,3.23.39,1.48.43,1,1.37,2.26.21.28-.56.83-1.85-1.42l-.76-1.33c-.22-.39-.42-.81-.63-1.22l-.58-1.16ZM69.78,590.89c.22-.24-.03-.88-.27-1.04l-.32.27c-.2.17.38.99.59.76Z"/>
  <path d="M159.71,210.44c-.68-1.38-.82-2.63-1.82-3.73l-.09,6.06c0,.49-.93,1.09-1.35,1,.38-.62.72-1.19.61-1.82l-.31-1.73c-.21-1.15-.43-2.16-.94-3.25-.24-.5-.43-1.23-.35-1.77l.25-1.71.26-1.64c.23-1.4,1.37-.9.93-2.33-.09-.29-.1-.87.04-1.09s.57-.42.99-.53c.35-.1.98.3,1.09.63.81,2.49-.19.93.85,2.63.55.9.81,2.22.62,3.28-.53,3.03-.06,3.99.6,6.68.23.93.24,1.83,1.12,2.45l.18.29c.07.11-.7.54-1.44-.95l-1.23-2.48Z"/>
  <path d="M167.06,538c-.69-1.39-.82-2.63-1.82-3.73l-.09,6.06c0,.49-.93,1.09-1.35,1,.38-.62.72-1.19.61-1.82l-.31-1.73c-.21-1.15-.43-2.16-.94-3.25-.24-.5-.43-1.23-.35-1.77l.25-1.71.26-1.64c.23-1.4,1.37-.9.93-2.33-.09-.28-.1-.87.04-1.09s.57-.42.99-.53c.35-.1.98.3,1.09.63.81,2.49-.19.93.85,2.63.55.9.81,2.22.62,3.28-.53,3.04-.05,3.99.59,6.68.23.94.26,1.82,1.1,2.46.06.06.27.26.19.29-.57.21-.96,0-1.43-.95l-1.23-2.48Z"/>
  <path d="M56.1,613.66c.02.8.13,1.24.19,1.95l.2,2.14c.06.59.82,2.4-.68,2.71-.21.04.19-.72.19-.95,0-.55-.44-1.57-.6-2.2-.27-1.06-.99-3.39-1.81-3.78l-.13-1.14c-.11-1.01-.03-1.97.14-3.02l.21-1.29c1.38-1.12-.72-2.54.69-3.16.33-.15.81-.28,1.05-.23s.63.44.72.69c1.25,3.61.54.77,1.71,3.28.1.22.24.71.26.93l.14,1.46c.09.89.07,1.86.23,2.7l.33,1.7c1.4,2.3.47,2.57,2.26,4.45l.24.25c.24.25-.84.21-1.38-.62l-1.83-2.82c-.44-.68-1.57-3.31-2.11-3.03ZM57.41,609.46h-.55s.6,1.43.6,1.43c.22-.62.13-.78-.06-1.43Z"/>
  <path d="M49.6,286.83c-.16-.31-.39-.51-.87-.69.04.8.13,1.21.2,1.91l.2,2.14c.07.79.82,2.26-.68,2.7-.22.04.19-.72.19-.95,0-.55-.44-1.58-.6-2.2-.27-1.07-.99-3.39-1.81-3.78l-.13-1.14c-.23-2.06.11-2.15.35-4.3,1.39-1.12-.72-2.55.69-3.16.33-.15.81-.28,1.05-.23s.63.45.72.69c1.25,3.6.53.77,1.71,3.28.1.22.24.71.26.93l.14,1.46c.09.89.07,1.86.23,2.7l.33,1.7c1.4,2.3.47,2.57,2.26,4.45l.24.25c.22.23-.8.24-1.35-.6l-1.37-2.08c-.38-.57-.7-1.11-1.01-1.69l-.72-1.38ZM50.05,281.91h-.55s.6,1.43.6,1.43c.22-.62.13-.78-.06-1.43Z"/>
  <path d="M145.32,207.31l-.11,4.98c-.02.73-.8,1.33-1.5,1.37l.61-1.01c.21.04-.46-4.44-.36-4.07l-.6-2.18-.34-.1s.11-1.92.21-2.3l.59-2.3c.13-.5.56-.96.98-1.29.43-.54-.26-1.37.07-2,.11-.22.56-.47.91-.59,1.4-.5,1.55,2.17,1.68,2.56.32.97.93,1.79.81,2.93l-.23,2.11c-.54,4.93.49,4.26.57,6.87.03.93,1.29,1.39.87,2.09-.85-.44-1.14-1.08-1.48-1.87-.51-1.18-.98-2.28-1.4-3.51l-.59-1.74c-.03-.08-.28-.28-.35-.32-.1-.06-.34.26-.34.38ZM147.58,202.98l-.61.09.17,1.16.61-.09-.17-1.16Z"/>
  <path d="M152.67,534.92l-.11,4.92c-.02.73-.8,1.32-1.5,1.37l.61-1.01c.21.04-.46-4.44-.36-4.07l-.6-2.18-.34-.1s.11-1.92.21-2.3l.59-2.3c.13-.5.56-.96.98-1.29.43-.54-.26-1.37.07-2,.11-.22.56-.47.91-.59,1.4-.5,1.55,2.17,1.68,2.56.32.97.93,1.79.81,2.93l-.23,2.11c-.54,4.95.5,4.28.57,6.88.02.89,1.3,1.42.86,2.05-.81-.38-1.14-1.08-1.47-1.85-.51-1.19-.98-2.28-1.4-3.51l-.59-1.74c-.03-.08-.28-.27-.35-.32-.1-.06-.34.26-.34.44ZM154.93,530.53l-.61.09.17,1.16.61-.09-.17-1.16Z"/>
  <path d="M184.16,150.85l-1.35-3.01c-.03-.07-.5-.18-.51-.1-.02.12-.07.41-.07.56l.05,2.68.25,2.06c.07.56-.61,1.19-1.14,1.21.32-.87.33-1.72.01-2.49-.26-.63.4-.94-1.18-4.16-.6-1.22-.52-1.88-.23-3.46l.38-2.07c.07-.4,1.2-.79.85-1.57-.38-.86-.19-1.57.72-1.97.32-.14.91-.02,1.11.32,1.03,1.73-.34,1.21,1.17,2.88.2.23.34.84.42,1.14.79,2.97-.17,2.14.15,4.86.12,1.02.26,2,.58,2.95.91,2.67-.19,1.37,1.37,3.31.1.13.13.67,0,.69-.36-.17-.92-.64-1.06-.91l-.7-1.36c-.27-.53-.54-.92-.84-1.58ZM184.32,144.52c-.07-.27-.33-.89-.53-1.26-.14.5-.15,1.08-.03,1.4.04.12.6,0,.56-.14Z"/>
  <path d="M190.26,475.61c-.06-.13-.33-.33-.45-.35-.15-.03-.26.41-.25.58l.07,2.7.24,2.07c.06.55-.62,1.18-1.14,1.21.32-.87.33-1.73.01-2.49-.26-.63.4-.94-1.18-4.16-.6-1.22-.52-1.88-.23-3.46l.38-2.07c.07-.4,1.2-.79.85-1.56-.38-.86-.19-1.57.72-1.97.32-.14.91-.02,1.11.32.98,1.65-.26,1.45,1.18,2.89.21.21.33.83.41,1.13.79,2.96-.17,2.14.15,4.86.12,1.02.26,2.01.58,2.95.88,2.6-.15,1.46,1.37,3.3.1.13.13.74,0,.68-.65-.27-1.17-1-1.39-1.6-.16-.42-.57-.91-.74-1.27l-1.7-3.75ZM191.68,472.07c-.07-.28-.33-.9-.53-1.26-.14.5-.15,1.08-.03,1.4.04.11.6,0,.56-.14Z"/>
  <path d="M12.46,68.29c-.3,1.15.02,1.92.18,2.97.06.37.06.97.13,1.32.22,1.07.9,2.19-.73,2.82l.31-1.08-.68-2.17c-.54-1.73-.51-2.24-1.91-3.86-.07-.55-.12-1.57-.11-2.2v-2.48c.01-.26.38-.68.57-.93.29-.37-.04-1.35-.12-1.88-.13-.87.96-1.45,1.7-1.23l.82,1.29c.11.18.08.84.22,1l.88.95.74,2.15c.41,1.2-.57,1.55.91,5.44l.9,2.36c.67,1.76,2.09,2.16,1.29,2.22s-1.36-.88-1.73-1.45c-.52-.8-1.1-1.53-1.55-2.32-.58-1-1.06-1.82-1.8-2.92ZM13.81,65.67c.22-.57-.21-1.35-.56-1.16-.32.29.18,1.08.56,1.16Z"/>
  <path d="M19.81,395.84c-.3,1.15.02,1.92.18,2.97.06.37.06.97.13,1.32.22,1.07.9,2.19-.73,2.82l.31-1.08-.68-2.17c-.54-1.74-.51-2.23-1.91-3.86-.08-.55-.12-1.57-.11-2.19v-2.47c.01-.28.36-.68.57-.95.28-.36-.05-1.34-.13-1.87-.13-.87.97-1.45,1.7-1.23l.82,1.27c.12.19.09.85.23,1.01l.88.94.74,2.15c.41,1.21-.57,1.55.91,5.45l.9,2.36c.67,1.76,2.09,2.16,1.29,2.22s-1.36-.88-1.73-1.45c-.52-.8-1.1-1.53-1.55-2.32-.58-1-1.06-1.82-1.8-2.92ZM21.16,393.22c.23-.55-.22-1.37-.55-1.15-.34.26.18,1.08.55,1.15Z"/>
  <path d="M159.2,247.2c-.11-.18-.39-.46-.68-.76-.07.58,0,1.11.08,1.77l.22,1.75.44,2.33c-.19.71-.63.97-1.06,1.12s.55-.62.02-2.03c-.76-2.04-.86-3.46-2.32-5-.15-1.4-.16-2.9-.17-4.45,0-.46.18-.88.54-1.19.83-.72-.36-1.17.05-2.43.13-.38.9-.87,1.31-.71.47.17,1.06.85,1.08,1.27.08,1.86,1.01,1.12,1.34,2.22l.52,1.72c.17.57-.15,1.62-.02,2.19l.53,2.33c.16.72.4,1.3.7,1.98l1.01,2.34c.15.34.71.74,1.15,1.21-.94.71-1.97-1.35-1.98-1.35l-1.15-1.66-1.62-2.66ZM159.9,243.5c.22-.32-.1-.95-.43-1.07l-.09.79c-.02.16.38.32.52.28Z"/>
  <path d="M166.56,574.75c-.11-.18-.39-.46-.68-.76-.24-.27.32,3.6.3,3.52l.44,2.36c.06.33-.66.97-.98,1.11-.63.27.5-.59-.06-2.05-.78-2.06-.84-3.42-2.32-4.99-.15-1.4-.16-2.9-.17-4.45,0-.46.18-.88.54-1.19.83-.72-.36-1.17.05-2.43.13-.38.9-.87,1.31-.71.47.17,1.06.85,1.08,1.26.08,1.87,1.01,1.12,1.34,2.23l.52,1.72c.17.57-.15,1.62-.02,2.19l.53,2.33c.16.72.4,1.3.7,1.98l1.01,2.34c.15.34.71.74,1.15,1.21-.95.71-1.97-1.35-1.98-1.35l-1.15-1.66-1.62-2.66ZM167.27,571.08c.16-.4-.1-.94-.45-1.1l-.09.8c-.02.16.35.29.54.3Z"/>
  <path d="M152.89,554.48l-.02,4.79c0,.19.06.63.07.81l-1.03,1.02c-.06-.1-.16-.24-.21-.3-.07-.09.16-.3.33-.45.81-.74-.06-1.34-.25-2.89s-.36-2.57-1.17-3.91c.02-.39.08-1.13.14-1.61l.26-2.27c.07-.63.17-1.1.68-1.52.79-.64-.02-1.23.48-2.52.12-.31,1.09-.55,1.39-.39.51.28.8,1.17.9,1.8.19,1.24,1.43,1.62,1.16,4.81-.21,2.47-.22,3.56.41,5.87l.44,1.61c.53,1.95.7.71.99,2.05-1.08-.06-1.23-.92-1.57-1.59l-.82-1.59-1.58-3.78c-.06-.14-.59-.12-.59.06Z"/>
  <path d="M145.52,226.95l-.02,4.8c0,.16.07.59.1.8l-1.06,1-.21-.3c-.07-.1.15-.29.33-.45.8-.74-.06-1.34-.25-2.89-.18-1.47-.37-2.65-1.18-3.91l.15-1.62.25-2.27c.07-.63.17-1.1.68-1.52.79-.64-.01-1.24.48-2.52.12-.32,1.1-.54,1.39-.38.5.26.8,1.17.89,1.79.18,1.24,1.43,1.61,1.16,4.81-.21,2.47-.22,3.56.41,5.87l.44,1.61c.53,1.95.7.71.99,2.05-1.08-.06-1.23-.92-1.57-1.59l-.81-1.59-1.55-3.72c-.08-.2-.62-.2-.63,0Z"/>
  <path d="M31.9,613.74l.26,1.95c.07.54.19,1.16.3,1.7l.32,1.6c.21,1.07-.85,1.63-.87,1.54-.22-1.25.44-.6,0-1.81l-.68-1.84c-.27-.73-.48-1.51-.9-2.15l-.9-1.37-.23-1.26c-.47-2.62.53-1.27.01-3.3-.26-1.02,1.25-.75.54-2.17-.21-.42-.2-1.1.01-1.41s1.09-.75,1.37-.52.74.9.85,1.22c.31,2.1,1.01.87,1.55,2.6,1.37,4.31-.5,2.95,2.28,8.9.11.24.25.87.41,1.05l1.13,1.25-.41.37c-1.38-1.16-2.58-3.21-3.51-4.65l-1.02-1.58-.53-.14ZM33.33,609.96c0-.18-.54-.53-.59-.35-.1.34.06.83.43,1.23.06-.12.15-.59.16-.88Z"/>
  <path d="M104.71,594.25c-.03-.08-.28-.33-.32-.38-.05-.07-.15.27-.16.4l-.18,2.65-.09,2.49c-.02.44-.72,1.07-1.1,1.15-.81.16.55-.64.43-1.55l-.2-1.47c-.08-.62-.09-1.21-.27-1.74l-.77-2.35c-.31-.93-.41-2.17-.03-3.08.91-2.19-.09-1.88,1.03-2.74.92-.71.03-1.26.32-2.09.18-.51,1.04-1.05,1.54-.84.47.19.69,1.03.76,1.53.25,1.81.66,1.05,1.02,2.46.68,2.72-.34,3.18,0,6.79.06.67.32,1.4.48,2.08l.52,2.19c.06.24.42.64.72,1.1.06-.03-.21.1-.4.2-.57-.56-.94-1.2-1.25-1.93l-1.35-3.18-.71-1.7ZM106.24,591.17c.2-.74.03-1.15-.46-1.18-.07.09-.17.65-.04.76l.5.42Z"/>
  <path d="M96.88,266.6l-.18,2.75-.09,2.51c-.02.44-.71,1.07-1.1,1.14-.8.16.55-.66.43-1.54l-.2-1.47c-.09-.62-.09-1.21-.27-1.74l-.77-2.35c-.31-.93-.41-2.17-.03-3.08.91-2.19-.09-1.88,1.03-2.74.92-.71.03-1.26.32-2.09.18-.5,1.04-1.04,1.54-.83.47.19.69,1.03.76,1.54.25,1.81.66,1.05,1.02,2.46.68,2.71-.34,3.17,0,6.79.06.66.33,1.41.48,2.07l.51,2.19.76,1.3c-1.27-.27-1.3-1.2-1.65-1.94-.49-1.06-.94-2.06-1.38-3.15l-.68-1.66c-.02-.05-.19-.3-.22-.35-.05-.08-.27.09-.28.22ZM98.88,263.62c.21-.74.03-1.15-.46-1.18-.07.09-.17.65-.04.76l.5.42Z"/>
  <path d="M24.55,286.19l.26,1.95c.07.54.19,1.16.3,1.7l.32,1.6c.21,1.07-.85,1.63-.87,1.54-.23-1.25.44-.6,0-1.81l-.68-1.84c-.27-.73-.49-1.52-.9-2.15l-.9-1.37-.22-1.26c-.46-2.64.53-1.26.01-3.3-.26-1.02,1.25-.75.54-2.17-.21-.42-.2-1.1.01-1.41s1.09-.75,1.37-.52c.31.26.74.89.86,1.22.31,2.11,1,.87,1.55,2.6,1.49,4.67-.7,1.84,2.25,8.93.31.75.66,1.4,1.27,1.97l.32.3s-.06,1.25-1.86-1.19c-.77-1.05-1.37-2-2.07-3.09l-1.02-1.58-.53-.13ZM25.97,282.39c.01-.17-.53-.51-.59-.34-.11.32.06.84.43,1.23.06-.14.14-.55.16-.89Z"/>
  <path d="M36.32,28.83c-.1.39-.16.68-.16.85l.03,2.73.26,2.02c.09.69-.51,1.28-1.21,1.24.38-.92.45-1.54.12-2.42-.49-1.32.4-.34-.62-2.8l-.86-2.06c-.22-.54-.18-1.68-.08-2.3l.35-2.34c.22-1.46,1.1-.2.78-2.16-.08-.48-.02-1.03.19-1.32.26-.36,1.21-.64,1.49-.32.55.65.7,1.35.85,2.21.18,1.09.91.31,1.21,2.85.42,3.45-.9,1.84.88,8.03.24.82.5,1.61.97,2.27l.36.2c.07.04-.34.46-.41.42-.91-.52-2.7-4.36-3.21-5.56-.25-.59-.45-.95-.94-1.53ZM38.02,25.35l-.22-.4c-.04-.07-.41.12-.4.2.07.29.27.83.43,1.15.18-.36.29-.77.19-.95Z"/>
  <path d="M80.3,613.84c-.16-.38-.45-.55-.47-.07-.13.79-.27,1.49-.28,2.14l-.04,3.33c0,.56-.79,1.16-1.34,1,.21-.41.71-1.03.67-1.4l-.29-2.3c-.17-1.33-.55-2.49-1.03-3.66l-.07-1.5c-.02-.37.16-.98.29-1.39.64-1.92.06-2.11.9-2.59,1.29-.73-.18-1.39.5-2.43.18-.28.9-.62,1.23-.54,1.5.36.38,1.48,1.52,3.09,1.48,2.08,0,5.54.46,7.77l.87,4.21.82,1.03-.46.37c-.29-.32-.69-.74-.82-1.03l-1.16-2.52c-.26-.57-.49-1.3-.71-1.91l-.6-1.62ZM81.81,610.8c.34-.07.06-1.13-.27-1.18-.37.33-.24,1.29.27,1.18Z"/>
  <path d="M43.67,356.38c-.1.39-.16.68-.16.85l.03,2.73.26,2.02c.09.69-.51,1.28-1.21,1.24.38-.92.45-1.54.12-2.42-.49-1.32.4-.34-.62-2.8l-.86-2.06c-.22-.54-.18-1.68-.08-2.3l.36-2.37c.21-1.39,1.09-.18.78-2.13-.08-.48-.02-1.03.19-1.32.26-.36,1.21-.64,1.49-.32.55.65.7,1.35.85,2.21.18,1.09.91.31,1.21,2.85.42,3.44-.9,1.88.88,8.03.26.9.45,1.71,1.15,2.37.07.07.23.33.14.37-.81.33-1.19-.69-1.54-1.32-.76-1.38-1.44-2.65-2.04-4.09-.25-.59-.45-.95-.94-1.53ZM45.15,352.5c-.04-.08-.41.12-.39.2.06.3.27.84.43,1.15.6-.54-.12-1.5-.04-1.35Z"/>
  <path d="M72.94,286.28c-.16-.38-.45-.55-.47-.07-.13.79-.27,1.49-.28,2.14l-.04,3.33c0,.56-.79,1.16-1.35,1.01.22-.41.71-1.04.67-1.39l-.29-2.3c-.17-1.33-.55-2.47-1.03-3.66l-.07-1.5c-.02-.37.16-.98.29-1.39.64-1.92.07-2.12.9-2.59,1.35-.76-.33-1.53.61-2.56.23-.25.88-.48,1.24-.4.4.09.83.77.82,1.22-.04,1.97.79,1.41,1.1,3.04.51,2.65-.48,4.55-.06,6.6l.85,4.19c.68.96.46.31.81,1.26,0-.01-.51.79-1.52-1.42l-.89-1.95-.73-1.94-.59-1.61ZM74.46,283.25c.34-.07.07-1.13-.26-1.18-.38.34-.23,1.29.26,1.18Z"/>
  <path d="M12.49,285.99c-.21.85-.12,1.33-.03,1.97l.32,2.23c.07.51.24,1.37.25,1.85,0,.38-.78.98-1.02,1.01.09-.4.42-1.02.34-1.24l-.69-2.06c-.28-.83-.43-1.6-.81-2.3l-.7-1.31-.31-.12c-.08-.03-.16-.39-.16-.49l-.02-1.93v-2.25c-.01-1.44,1.09-.75.56-2.34-.17-.52-.06-1.13.21-1.53.22-.33,1.09-.59,1.43-.27.57.53.8,1.48.97,2.16l.91.94.72,2.17c.51,1.53-1,1.76,2.1,8.54.18.39.82.89,1.21,1.29-.01.08-.24.34-.4.46-.75-.59-1.2-1.14-1.66-1.82l-1.21-1.82c-.69-1.03-1.05-1.98-1.99-3.16ZM13.9,282.97c.04-.31-.35-1.07-.66-.95-.16.07-.08.67.02.8l.26.33c.06.07.36-.1.37-.18Z"/>
  <path d="M19.84,613.54c-.21.85-.12,1.33-.03,1.97l.31,2.23c.07.51.24,1.33.24,1.86,0,.37-.78.96-1.02,1,.09-.4.42-1.02.34-1.24l-.69-2.06c-.28-.83-.43-1.6-.81-2.3l-.7-1.31-.31-.12c-.08-.03-.16-.39-.16-.49l-.02-1.93v-2.25c-.01-1.45,1.09-.75.55-2.34-.17-.51-.06-1.13.21-1.53.22-.32,1.09-.59,1.43-.27.56.53.8,1.48.97,2.16l.91.95.72,2.17c.5,1.52-.99,1.78,2.09,8.54.18.4.82.89,1.21,1.29-.02.08-.25.33-.4.46-.75-.59-1.2-1.14-1.66-1.82l-1.21-1.82c-.69-1.03-1.06-1.98-1.99-3.16ZM21.25,610.51c.04-.31-.34-1.06-.66-.95-.14.08-.08.67.03.81l.26.33c.06.07.36-.1.37-.19Z"/>
  <path d="M192.78,380.32c-.47-.68-.81-1.36-1.2-2.02l-1.19-1.98c-.12.05-.34.45-.33.6l.19,1.61.28,2.64c.04.39.11.93.06,1.28s-.6.69-1.11.81c.73-1.2.31-1.97,0-3.02s-.49-2.18-1.16-3.16l-.82-1.21c-.11-1.47-.1-3.38.07-4.81.05-.39.92-.99.78-1.36-.2-.56-.4-1.27-.23-1.73.12-.3.92-.73,1.26-.69.58.07,1.04,1,1.07,1.62.03.68.57.95,1,1.47.34.41.75,1.42.77,2.06l.07,2.99.33,1.54c.09.44.25,1.02.42,1.44l1.35,3.29c.13.26.64.75.83.97.05.05,0,.39-.06.37l-.47-.2c-.86-.37-.8-.89-1.92-2.5ZM191.7,373.2c.03-.26-.24-.9-.5-.87-.25.03-.06.69.19,1,.05.38.1.37.32-.13Z"/>
  <path d="M50.91,13.3l-1.97-3.84c-.76-1.48-.46,2.47-.44,2.66.1,1.27.93,3.34-.8,3.95-.14.05-.05-.43.04-.64.3-.71.07-1.58-.07-2.37-.66-3.55-1.83-3.66-1.64-6l.2-2.49c.03-.37.17-1.05.45-1.28,1.36-1.13-.33-1.54.56-2.69.22-.28.94-.65,1.28-.45.58.32.82,1.27.97,1.96.24,1.07,1.37,1.61,1.39,3.27l.06,4.11c.02,1.21.64,2.71,1.05,3.77.1.27.05,1.02.22,1.23l1.07,1.3c.05.06-.04.48-.1.44l-.35-.18c-.31-.16-.73-.59-.91-.93l-1-1.82ZM50.14,6.25c.38-.17-.05-1.16-.38-.94-.24.16.09,1.07.38.94Z"/>
  <path d="M86.38,268.6l-.81-1.79c-.05-.12-.17-.31-.23-.39s-.42,0-.49.05c-.03.61-.09,1.56,0,2.21l.3,2.46c.11.87,0,1.47-1.1,1.93-.14.03-.01-.4.07-.64.26-.7.07-1.59-.09-2.38-.8-3.88-1.32-3.7-1.5-4.26-.21-.65-.17-1.79-.04-2.47l.37-1.95c.38-2.01.76.36.88-3.61.15-.31.99-.65,1.36-.65.63.52.91,1.57,1.01,2.37.07.37.72.92.94,1.28.21.34.2,1.15.26,1.61.52,3.79-.48.53.08,4.38l.16,1.12.53,1.69c.17.54.31,1.02.44,1.61.38,1.65,1.53,1.62,1.12,1.96-.75.63-1.51-1.16-1.56-1.24l-1.11-1.97c-.19-.34-.39-.87-.59-1.32ZM86.92,263.36l-.36-1.15-.59.3.39.74c.03.06.28.08.57.11Z"/>
  <path d="M58.27,340.84l-1.99-3.89c-.71-1.39-.44,2.49-.42,2.71.1,1.22.93,3.37-.8,3.94-.14.05-.05-.43.04-.64.3-.71.07-1.58-.07-2.37-.66-3.55-1.83-3.66-1.64-6l.2-2.49c.16-2.01,1.43-1.28.93-2.49-.19-.46-.18-1.15.08-1.48.22-.27.95-.63,1.26-.47.65.34.84,1.27,1,1.97.25,1.07,1.37,1.62,1.39,3.27l.06,4.11c.02,1.21.64,2.7,1.06,3.77.1.26.05,1.02.22,1.23l1.07,1.3c.05.06-.04.48-.1.44l-.35-.18c-.31-.16-.73-.59-.91-.93l-1-1.82ZM57.49,333.8c.38-.17-.05-1.16-.38-.94-.24.16.09,1.07.38.94Z"/>
  <path d="M185.42,52.77c-.47-.68-.81-1.36-1.21-2.02l-1.19-1.98c-.12.05-.34.45-.33.6l.19,1.61.28,2.65c.04.39.12.92.06,1.29-.05.33-.6.68-1.11.8.72-1.2.31-1.97,0-3.02s-.49-2.18-1.16-3.16l-.82-1.21c-.11-1.46-.1-3.38.07-4.8.05-.39.92-.99.78-1.37-.2-.56-.4-1.28-.23-1.72.12-.31.93-.74,1.27-.7.55.06,1.03,1,1.06,1.62.03.69.57.95,1.01,1.47.34.41.75,1.42.77,2.06l.07,2.99.33,1.54c.09.44.25,1.02.42,1.44l1.34,3.29c.14.26.65.75.84.97.05.05,0,.39-.06.37l-.47-.2c-.85-.37-.8-.9-1.92-2.5ZM184.34,45.65c.01-.29-.21-.87-.52-.89-.22.09-.05.68.19,1.02.05.37.1.36.33-.13Z"/>
  <path d="M93.74,596.15l-.81-1.79c-.05-.12-.17-.31-.23-.39s-.42,0-.49.05c-.03.61-.09,1.56,0,2.21l.3,2.46c.11.86,0,1.48-1.11,1.93-.12,0-.01-.39.08-.64.26-.7.08-1.59-.09-2.38-.8-3.88-1.32-3.71-1.5-4.26-.21-.65-.17-1.79-.04-2.47l.37-1.95c.38-2.02.77.35.88-3.61.16-.3.99-.64,1.36-.65.64.54.9,1.54,1.02,2.39.05.36.69.88.94,1.28.2.33.19,1.14.25,1.6.52,3.79-.48.53.08,4.38l.16,1.12.53,1.69c.17.54.31,1.02.44,1.61.38,1.65,1.53,1.62,1.12,1.96-.75.63-1.52-1.16-1.56-1.24l-1.11-1.97c-.19-.34-.39-.87-.59-1.32ZM94.28,590.92l-.36-1.16-.59.29.38.77.57.1Z"/>
  <path d="M64.79,293.22c-.92-.14-2.86-4.73-3.29-5.79-.22-.54-.36-.95-1-1.34v5.37c0,.69-.37,1.48-1.22,1.29l.55-.89c.1-.16.04-.59-.04-.83-1.11-3.19.19-1.43-1.2-4.58-.35-.79-.61-1.67-.53-2.59.31-3.86,1.6-4.13,1.36-4.94-.12-.41-.2-1.23.05-1.45.29-.25,1.01-.59,1.33-.53,1.72,1.17.17,1.98,1.64,3.3.31.27.47.92.49,1.35l.06,1.68c.04,1.13-.12,2.25,0,3.39l.2,1.88c.08.22.34.73.41.98l.46,1.85c.3,1.23,1.4,1.12.73,1.84ZM62.31,283.28c.14-.5.07-1.06-.25-1.17-.14-.05-.42.48-.31.59l.56.58Z"/>
  <path d="M72.12,620.81c-1.02-.51-2.74-4.53-3.26-5.83-.22-.54-.35-.94-1-1.35l.02,5.4c0,.52-.49,1.23-.88,1.34-.08.02-.36-.19-.31-.26l.28-.35c.27-.33.37-.76.21-1.18-1.14-3.02.2-1.35-1.22-4.58-1.03-2.35-.39-4.09.35-6.46,1.19-.5-.17-1.89.54-2.53.26-.23,1.01-.58,1.32-.52.34.06.85.84.86,1.24.09,2.53,1.2,1.41,1.27,3.41l.06,1.68c.04,1.13-.12,2.25,0,3.39l.2,1.88c.08.22.34.72.4.97l.47,1.85c.08.3.41.82.61,1.05l.32.35c.06.07-.11.28-.24.49ZM69.66,610.84c.14-.52.08-1.06-.24-1.18-.15-.06-.42.48-.31.59l.56.59Z"/>
  <path d="M196.08,270.36c-.79-1.72-.79-2.78-1.71-4.34l-.47,1.74v4.27c0,.43-.98.93-1.26.8.07-.2.51-.81.48-1.09l-.29-2.35c-.07-.59.02-1.32-.16-1.8l-.79-2.15c-.27-.73.05-1.83.26-2.6l.53-1.98c.25-.92,1.21-.99.91-1.87-.28-.83.01-1.5.89-1.8,1.3-.45,1.62,1.71,1.58,2.68,2.14,2.47-.09,5.61.65,8.55l.44,1.75c.2.8-.23,1.2,1.06,2.84.06.07.14.27.17.36s-.43.21-.5.16c-.22-.17-.63-.64-.76-.91l-1.03-2.25ZM196.21,262.44l-.54.16c.12.39.32.84.55.97.11-.29.08-.83-.01-1.13Z"/>
  <path d="M202.56,476.29c-.12-.32-.49-.97-.68-1.22-.04-.05-.32.31-.32.41l-.02,5.42c0,.5-1.05,1.13-1.39,1.03l.51-.87c.07-.56.06-1.41-.06-2.01-.61-3.09.04-1.5-1.26-4.67-.16-.4.04-1.32.11-1.8l.3-1.94c.38-2.44,1.64-1.44,1.16-2.65-.14-.36-.29-1.02-.13-1.26.25-.39,1.01-.79,1.4-.7.72.15,1.01.99.93,1.68-.17,1.45,1.2,1.26,1.22,3.23.04,3.66-.71,4.05.48,8.29.58,2.05-.7.03,1.3,2.93.04.06-.27.34-.33.3l-.31-.22c-.68-.51-2.04-3.57-2.36-4.45l-.54-1.49ZM203.57,471.15l-.55.12.24,1.09.55-.12-.24-1.09Z"/>
  <path d="M195.23,148.87c-.14-.36-.36-.83-.54-1.23l-.48.02-.03,5.72c0,.43-1.05,1.1-1.39,1l.51-.87c.07-.56.06-1.41-.06-2.01-.61-3.09.04-1.49-1.26-4.67-.16-.4.04-1.32.11-1.8l.3-1.94c.38-2.44,1.64-1.44,1.16-2.65-.14-.36-.29-1.02-.13-1.26.25-.39,1.02-.79,1.39-.71.76.18,1.02.98.94,1.68-.16,1.45,1.2,1.26,1.22,3.23.03,2.99-.4,2.75-.12,5.36.11,1.02.43,1.91.6,2.93l.21,1.3c.07.45.82,1.25,1.08,1.63.04.06-.27.34-.33.29l-.31-.22c-.75-.62-1.97-3.44-2.35-4.44l-.52-1.37ZM196.22,143.6l-.55.12.24,1.09.55-.12-.24-1.09Z"/>
  <path d="M203.43,597.9c-.79-1.73-.79-2.77-1.71-4.34l-.47,1.74v4.27c0,.43-.98.93-1.26.8.07-.2.51-.81.48-1.09l-.29-2.35c-.07-.59.02-1.32-.16-1.8l-.79-2.15c-.27-.73.05-1.83.26-2.6l.53-1.98c.25-.92,1.21-.99.91-1.87-.28-.83.01-1.5.89-1.8,1.3-.45,1.62,1.71,1.58,2.68,2.14,2.47-.09,5.59.65,8.55l.44,1.75c.2.78-.21,1.26,1.06,2.83.06.07.14.28.17.36s-.44.2-.51.15c-.26-.18-.68-.74-.81-1.03l-.97-2.12ZM203.57,589.99l-.54.16c.12.39.32.84.55.97.11-.3.08-.83,0-1.14Z"/>
  <path d="M203.42,379.75c-.66-1.38-.96-3.2-1.83-3.72l-.04,5.76c0,.32-.54.87-.76,1.04l-.35.29c-.11.09-.34-.33-.23-.44.25-.25.62-.9.57-1.2l-.31-1.95c-.18-1.12-.24-2.13-.84-3.14-.33-.56-.43-1.26-.33-1.91l.29-1.86.34-1.8c.04-.2.39-.61.57-.74,1.14-.85-.5-1.58.64-2.55.26-.22.86-.34,1.3-.23,1.12.28.22,1.74.99,2.67.27.33.74.91.78,1.26.44,3.38-.36,2.87-.02,6.14.17,1.64.76,4.62,1.66,5.83.06.08-.21.34-.28.3l-.37-.21c-.29-.41-.52-.85-.75-1.34l-1.05-2.2ZM203.68,372.65c0-.11-.47-.4-.49-.29l-.09.53c-.03.2.3.54.56.67l.02-.92Z"/>
  <path d="M196.06,52.2c-.65-1.36-.97-3.23-1.83-3.71l-.04,5.78c0,.31-.54.84-.76,1.02l-.35.29c-.11.09-.34-.35-.23-.45.26-.24.62-.89.57-1.22l-.3-1.93c-.18-1.12-.24-2.13-.84-3.14-.33-.56-.43-1.26-.33-1.91l.29-1.86.34-1.8c.04-.2.39-.61.56-.74,1.14-.85-.5-1.58.64-2.55.26-.22.86-.34,1.3-.23,1.12.28.22,1.74.99,2.67.27.33.74.91.78,1.26.44,3.38-.36,2.87-.02,6.14.17,1.64.76,4.62,1.66,5.83.06.08-.21.34-.28.3l-.36-.21c-.29-.41-.52-.85-.75-1.34l-1.05-2.2ZM196.32,45.1c0-.13-.46-.4-.48-.29l-.09.52c-.04.2.3.55.56.68v-.91Z"/>
  <path d="M11.45,9.15c-.03-.09-.47-.23-.48-.13l-.07.48-.23,1.64-.18,1.15-.24,1.73c-.11.82-.42,1.3-1.25,1.35-.53.03.49-.64.46-1.34l-.13-4.05c0-.19-.76-2.69-.19-4.09l1.02-2.5c.12-.29.65-.75.92-.97.41-.34-.21-1.72.71-2.25.43-.25,1.33-.24,1.57.17.48.84.14,1.76.34,2.5.18.71,1.05.45.35,3.94l-.62,3.1c-.37,1.86-.02,1.91.23,4.12.08.73.25,1.47.49,2.09l.36.22c.06.04-.24.42-.31.39-.36-.16-.88-.86-1.01-1.26l-.74-2.37c-.41-1.33-.31-1.71-.98-3.92ZM13.5,5.27l-.58.27c.09.49.31,1.09.53.95.2-.12.15-.65.06-1.22Z"/>
  <path d="M49.13,266.51c-.03-.06-.38-.06-.5-.07l.21,2.5.3,2.66c.1.86-.38,1.44-1.1,1.63-.92.24.72-.42.31-1.86l-.75-2.59c-.2-.7-.59-1.44-.91-2.13l-.18-.4c-.03-.07-.22-.04-.43-.07-.04-.97-.1-2.14.02-3.13l.22-1.9c.13-1.11,1.06-.74.61-1.87-.12-.31-.28-.87-.21-1.12.15-.54,1.05-1.06,1.54-.83,1.33.64.6,1.54,1.68,2.87,1.52,1.87.58,3.47.92,5.2l.33,1.64c.44,2.18.75,1.78,1.28,3.76.17.65.55,1.31,1.09,1.72l.05.58c-.82-.41-1.08-.83-1.5-1.45l-1.07-1.59-1.94-3.55ZM50.16,263.39c.08-.31.17-.63.07-.75s-.35-.28-.5-.37c-.09.54.02.84.43,1.13Z"/>
  <path d="M56.56,594.18c-.04-.07-.13-.2-.19-.2l-.38.03.21,2.5.3,2.66c.1.86-.38,1.44-1.1,1.63-.91.24.73-.42.31-1.86l-.75-2.58c-.2-.7-.59-1.44-.91-2.13l-.18-.4c-.03-.07-.22-.04-.43-.07-.04-.96-.1-2.14.02-3.13l.22-1.9c.13-1.11,1.06-.74.61-1.87-.12-.31-.28-.87-.21-1.12.15-.53,1.05-1.06,1.54-.83,1.32.64.6,1.54,1.68,2.87,1.52,1.87.58,3.47.92,5.2l.33,1.64c.43,2.14.74,1.78,1.28,3.75.21.77.55,1.28,1.25,1.92l-.29.37c-.62-.46-.94-.89-1.31-1.44l-1.05-1.55-1.89-3.49ZM57.52,590.94c.08-.31.17-.63.07-.75s-.35-.28-.5-.37c-.09.54.02.84.43,1.13Z"/>
  <path d="M165.01,595.65c-.16,1.77-.37,1.55-.03,3.8.06.42-.69,1.14-1.1,1.08-.16-.02.12-.46.26-.64.43-.54.1-1.33-.06-2.03-.13-.56-.04-1.69-.48-2.83l-.61-1.58-.36-.13.19-1.3c.09-.59.13-1.12.23-1.68l.4-2.31.88-.59-.12-1.62c-.04-.52,1.05-1.41,1.56-1.11.91.55.97,1.81,1.06,2.69,1.98,2.45.25,5.44.87,8.2l.57,2.49c.1.43.31,1.15.49,1.49l.77,1.51c-1.06-.36-1.27-1.05-1.62-1.79-.78-1.61-1.52-3.32-2.15-4.96-.05-.12-.18-.35-.24-.43-.07-.1-.36.22-.37.35l-.13,1.4Z"/>
  <path d="M157.65,268.1c-.16,1.77-.37,1.55-.03,3.8.06.42-.69,1.14-1.1,1.08-.16-.02.12-.46.26-.64.43-.54.1-1.33-.06-2.03-.13-.55-.04-1.7-.48-2.83l-.61-1.57-.36-.16c.39-1.59.07-.94.42-2.97l.4-2.31.88-.59-.12-1.62c-.04-.53,1.05-1.42,1.56-1.11.91.55.97,1.81,1.06,2.69,1.98,2.45.25,5.44.87,8.2l.57,2.49c.1.43.31,1.15.49,1.49l.77,1.51c-1.06-.36-1.27-1.05-1.62-1.79-.78-1.61-1.52-3.32-2.15-4.96-.05-.12-.18-.35-.23-.43-.07-.1-.36.22-.37.35l-.13,1.4Z"/>
  <path d="M18.81,336.7c-.03-.09-.47-.23-.48-.13l-.07.48-.23,1.64-.17,1.15-.25,1.72c-.12.79-.35,1.3-1.24,1.36-.54.04.47-.59.45-1.35l-.08-3.72c-.02-.75-.42-1.71-.39-2.45.1-2.49.23-2.18,1.19-4.46.12-.29.64-.76.9-.98.42-.34-.21-1.73.71-2.25.44-.25,1.33-.24,1.57.17.49.82.14,1.77.34,2.5s1.05.48.35,3.95l-.63,3.11c-.37,1.86-.02,1.91.23,4.12.08.73.25,1.47.49,2.09l.36.22c.06.04-.24.42-.31.39-.36-.16-.88-.86-1.01-1.26l-.74-2.37c-.41-1.33-.31-1.72-.98-3.92ZM20.85,332.82l-.58.27c.09.49.31,1.09.53.95.19-.12.15-.65.06-1.22Z"/>
  <path d="M36.78,285.96c-.86.84-.16,1.24-.11,1.85l.18,2.16.2,1.61c.07.58-.15.98-.88,1.41-.05.16-.28-.24-.25-.32.2-.24.58-.66.52-.84l-.52-1.63c-.33-1.04-.54-2-.95-2.96s-1.11-.82-1.03-3.55l.06-2.09c.05-1.57.55-1.05.94-2.01-.23-.5-.51-1.41-.18-1.96.16-.27.88-.63,1.2-.65.62.1,1.07,1.12,1.02,1.74-.06.71.76.98.99,1.43.39.78.81,1.81.84,2.71l.08,3.02c.02.87.35,2,.69,2.71l.34.7c.49,1.01.25,1.79,1.7,3.16l-.41.35c-.32-.29-.78-.73-.94-.99l-1.04-1.67c-.2-.32-.43-.69-.61-1l-1.83-3.18ZM38.2,282.97c.04-.31-.19-1.03-.72-1.01.03.43.13.92.27,1.18.04.07.44-.1.45-.17Z"/>
  <path d="M202.49,495.02c.05.65.08,1.1.19,1.73l.34,1.85.34,1.73c.13.64-.13,1.54-1.17,1.64l.5-1.03c-.11-.67-.37-1.38-.61-2.04l-.79-2.15c.06.16-1.19-2.06-1.28-1.83-.14-.57-.38-1.62-.35-2.31l.12-2.94.72-.98c-.22-.44-.54-1.14-.48-1.64.07-.65.98-1.17,1.52-.91.69.33.88,1,1.03,1.77.24,1.27,1.05-.29,1.88,3.58.41,1.91-.22.54.32,2.86.28,1.21.59,2.3,1.19,3.37,1.1,1.97.47,1.98,1.94,3.16l.25.28c.11.12-.65.62-1.8-1-1.08-1.51-2.02-2.85-3-4.42-.17-.27-.17-.32-.86-.72ZM203.82,491.19c-.02-.18-.55-.38-.63-.22-.15.29.04,1.05.74,1.02l-.11-.8Z"/>
  <path d="M84.67,285.79c-.67,2.44-.41,3.2-.47,5.65,0,.31-.51.83-.71,1l-.32.24c-.07.05-.43-.14-.38-.21.9-1.31.67-.94.31-3.28-.11-.7-.02-1.55-.21-2.15-1.28-3.99-.58-1.55-.48-3.61.11-2.38.34-.88.75-3.22l.78-.8c.29-.29-.39-1.47.47-2.31.26-.25,1.19-.4,1.41-.11.44.56.51,1.27.54,2.01.07,1.59,1.02.44.91,2.79l-.11,2.29c-.05,1.14-.38,2.44-.19,3.55l.32,1.91.28,1.63c.1.6.58,1.29.81,1.96-.03-.08-.41.81-1.29-1.28-.68-1.61-1.27-3.1-1.81-4.74l-.62-1.34ZM86.52,283.57l.15-1.56-.66.33.52,1.23Z"/>
  <path d="M92.03,613.35c-.68,2.44-.42,3.2-.47,5.65,0,.31-.51.83-.71,1l-.32.24c-.07.05-.43-.14-.38-.21.9-1.3.66-.96.31-3.28-.11-.7-.02-1.55-.21-2.15-1.24-3.83-.63-1.39-.49-3.62.15-2.45.34-.83.75-3.2l.78-.81c.29-.29-.39-1.47.47-2.31.26-.25,1.19-.4,1.41-.11.44.56.51,1.27.54,2.01.07,1.58,1.03.44.91,2.79l-.11,2.29c-.06,1.15-.38,2.44-.19,3.55l.32,1.91.25,1.49c.08.46.48,1.28.75,1.75.03.09-.01.28-.1.61-1.01-.47-2.53-5.19-2.91-6.27l-.62-1.34ZM93.88,611.12l.15-1.56-.66.33.52,1.23Z"/>
  <path d="M44.13,613.51c-.86.84-.16,1.24-.11,1.85l.18,2.16.2,1.61c.07.58-.15.98-.88,1.41-.05.16-.28-.23-.25-.32.88-.95.53-.73.01-2.47-.31-1.05-.54-2-.96-2.96-.2-.47-.87-1.21-.91-1.66-.05-.68-.13-1.38-.12-1.89l.06-2.09c.04-1.57.56-1.06.94-2.01-.23-.5-.5-1.41-.18-1.95.16-.28.89-.63,1.2-.65.61.11,1.07,1.11,1.02,1.74-.06.7.76.98.99,1.43.38.77.81,1.81.83,2.71l.08,3.02c.03.91.42,1.89.74,2.72l.45,1.19c1.09,2.87.66,1.39,1.36,2.48l.19.3c.04.06-.55.57-1.38-.77l-1.03-1.66c-.2-.32-.43-.7-.61-1.01l-1.83-3.18ZM45.54,610.53c.16-.28-.3-1.16-.65-.95-.12.25.05.9.24,1.11.05.06.37-.1.41-.16Z"/>
  <path d="M195.13,167.46c.05.65.08,1.1.19,1.73l.34,1.85.34,1.73c.13.64-.13,1.54-1.17,1.64l.5-1.04c-.11-.67-.37-1.37-.61-2.04l-.79-2.15c.06.15-1.19-2.07-1.28-1.83-.14-.57-.38-1.62-.35-2.31l.12-2.94.72-.98c-.22-.44-.54-1.14-.48-1.64.07-.65.98-1.17,1.52-.91.69.33.88,1,1.03,1.77.24,1.27,1.05-.29,1.88,3.58.41,1.91-.22.54.32,2.86.28,1.21.59,2.3,1.19,3.37,1.1,1.97.48,1.98,1.94,3.16l.25.28c.11.12-.65.62-1.8-1-1.08-1.51-2.02-2.85-3-4.42-.17-.27-.17-.32-.86-.72ZM196.46,163.64c-.02-.18-.55-.38-.63-.23-.17.33.04,1.06.74,1.03l-.11-.8Z"/>
  <path d="M12.42,266.5l.19,1.62c.08.67.16,1.24.29,1.82l.39,1.71c.13.56-.21,1.08-.62,1.46l-.32.3s-.07,0-.24-.17c.13-.25.54-.96.45-1.23l-.73-2.27c-.44-1.37-1.05-2.61-2.05-3.58-.02-.3-.08-.76-.08-1.11l-.06-3.62c0-.22.38-.69.5-.88.67-1.04-1.08-2.36.64-3.09,1.31-.56,1.58,1.26,2.12,2.35.12.24.79.61.89.88l.7,2.14c.14.42-.12,1.41-.02,1.82l.78,3.16c.19.77.75,1.6,1.06,2.32.33.77.72,1.41,1.29,1.99l.28.29c.07.07-.33.29-.42.25-.29-.13-.78-.58-.98-.85l-1.51-2.03c-.62-.84-1.37-2.19-1.9-3.07-.07-.12-.68-.33-.66-.2ZM13.87,263.24c.06-.4-.18-1.04-.67-1.11-.24.3.14,1.23.35,1.18l.32-.08Z"/>
  <path d="M19.78,594.05l.19,1.62c.08.67.16,1.24.29,1.82l.39,1.71c.13.56-.21,1.08-.62,1.46l-.32.3s-.07,0-.24-.17c.13-.25.54-.95.45-1.23l-.73-2.27c-.44-1.36-1.05-2.61-2.05-3.58-.02-.3-.08-.76-.08-1.1l-.06-3.61c0-.24.38-.71.5-.9.66-1.03-1.07-2.36.64-3.09.29-.12,1.08-.02,1.2.25l.91,2.1c.11.25.8.6.89.88l.7,2.14c.14.43-.12,1.41-.02,1.82l.78,3.16c.19.77.75,1.6,1.06,2.32.33.77.72,1.41,1.29,1.99l.28.29c.07.07-.33.29-.43.25-.29-.13-.78-.58-.98-.85l-1.51-2.03c-.62-.84-1.37-2.19-1.9-3.07-.07-.12-.68-.33-.66-.2ZM21.23,590.79c.06-.4-.18-1.04-.67-1.11-.24.3.14,1.24.35,1.19l.32-.08Z"/>
  <path d="M108.74,265.85c-.18.35-.25.56-.28.82l-.27,2.26-.24,2.07c-.1.82-.32,1.71-1.43,1.56l.57-.85-.04-4.12-.62-2.3c-.27-1.02.7-3.44.98-4.5.08-.31.3-.64.62-.84,1.13-.69.02-1.61.83-2.46.24-.25,1.04-.56,1.35-.36.68.44.87,1.42.75,2.25-.21,1.48.61-.06.59,2.41l-.02,2.3-.61,1.96.12,3.28.27,1.89c.09.64.27,1.33.49,1.87l.36.23c.07.04-.25.46-.33.42-.32-.15-.8-.76-.93-1.14l-.9-2.74c-.46-1.4-.65-2.7-1.26-4.01ZM111,262.33l-.74.32.63,1.15.11-1.47Z"/>
  <path d="M116.1,593.4c-.19.36-.25.56-.28.82l-.27,2.26-.24,2.07c-.1.82-.32,1.71-1.43,1.56l.57-.85-.04-4.12-.62-2.31c-.27-1.02.7-3.44.98-4.5.08-.31.3-.64.62-.84,1.13-.69.02-1.61.83-2.46.24-.25,1.04-.56,1.35-.36.68.44.87,1.42.75,2.25-.21,1.48.61-.06.59,2.41l-.02,2.3-.62,1.96.11,3.29.27,1.88c.11.73.29,1.41.63,1.99l.21.36c.05.09-.71.59-1.29-1.14l-.86-2.57c-.47-1.4-.65-2.7-1.26-4.01ZM118.36,589.88l-.74.32.63,1.15.11-1.47Z"/>
  <path d="M170,73.49c.04,1.05-.16,1.37-1.22,1.82-.83.36.68-.68.47-1.76l-.42-2.1c-.18-.88-.38-1.72-.65-2.56-.71-2.19-.68-.73-.4-2.99l.23-1.84c.29-2.36.91-1.27.97-2.23.03-.5.04-1.32.15-1.85.07-.35.98-.6,1.39-.65,1.76,1.9.14,1.98,1.57,3.24,1.41,3.62-.43,4,.81,8.82l.76,2.94.86,1.19c-1.18.1-1.31-.81-1.68-1.56l-.99-2-1.35-3.21c-.05-.12-.35-.36-.45-.29s-.23.37-.22.52l.16,4.51ZM171.69,64.57c-.08-.04-.36.26-.32.35l.51,1.05c.19-.89.28-1.14-.19-1.39Z"/>
  <path d="M177.27,399.28l.08,2.55c.01.37-1.25,1.27-1.23,1.02.09-1.01.73-.63.5-1.74l-.42-2.11c-.18-.88-.38-1.72-.65-2.56-.71-2.19-.68-.73-.4-2.99l.23-1.84c.04-.36.09-1,.26-1.24,1.24-1.81.39.57.85-2.82.05-.35,1.08-.76,1.39-.58.43.23.89,1.08.9,1.56.03,2.18,1.64.63,1.11,5.97-.15,1.5.03,3.02.4,4.44l.76,2.94.86,1.19c-1.18.1-1.31-.81-1.68-1.56l-.98-1.99-1.3-3.06-.17-.4c-.04-.09-.51.03-.51.12l.03,3.1ZM179.4,392.54c.02-.12-.24-.36-.35-.42-.08-.04-.37.26-.32.35l.51,1.05.16-.98Z"/>
  <path d="M2.99,190.75l-2.48-3.64c-.14.74-.18,1.39-.05,2l.27,1.24.36,1.69c.08.36.16.95.07,1.27s-.66.77-1.01.91c.66-3.15-.19-.54-.11-5.01l.06-3.49c.02-1.09.06-2.18,0-3.26s-.13-2.12.1-3.1c.39,2.05,1.09,1.04,1.76,2.98,1.09,3.15-.16,1.94,1.28,6.49.15.46.82,1.63,1.27,2.63.58,1.32,1.81,2.13,1.15,2.03-.62-.09-1.13-.73-1.47-1.18l-1.18-1.58Z"/>
  <path d="M10.34,518.3c-.92-1.24-1.54-2.37-2.48-3.61-.13.71-.18,1.38-.05,1.97l.28,1.24.37,1.69c.15.7.11,1.56-.43,1.92-.14.09-.36.18-.45.22-.62.26.63-.64-.03-2.38-.22-.58-.17-1.31-.17-1.96v-1.44s-.04-7.37-.04-7.37c0-.55.13-1.2.23-1.65.31,2.01,1.1,1.06,1.73,2.98.45,1.35.62,2.58.52,3.96l.75,2.52c.09.29.38.8.52,1.08,1.03,2,.66,1.84,1.9,3.23.04.05.2.27.14.28-.82.14-1.13-.46-1.53-1l-1.26-1.7Z"/>
  <path d="M3.86,212.28l1.01,1.32c.29.38-1.25.42-1.68-1.3-.64-.96-1.25-1.89-1.75-2.95-2.36-5.05-1.01-.19-1.34-7.03-.06-1.3-.16-2.4.09-3.72,1.14,2-.22.43,1.22,2.45,1.55,2.17.26,4.58,1.2,7.64.2.64.4,1.23.61,1.83l.64,1.76Z"/>
  <path d="M11.23,539.84c.12.34.81.89,1,1.31.09.19-.75.2-.9,0-.8-1.03-2.12-3.54-2.81-4.83l-1.16-2.15v-7.17c0-.18.2-.69.26-.85l.54,1.51c.08.23.44.62.62.91,1.54,2.39.23,4.54,1.19,7.66.2.64.39,1.23.61,1.83l.65,1.77Z"/>
  <path d="M9,478.89c.41,2.2-.03,1.82.71,2.98.15.24.21.61.16.88-1.08-.55-1.19-1.22-1.35-2.09-.37-1.09-1.13-2.31-1.14-3.56l-.04-10.85c0-.25.79-.32.91-.1.94,1.71-.32,1.54.71,3.14,1.58,2.45-.89,4.65.04,9.6Z"/>
  <path d="M1.65,151.34c.4,2.12-.02,1.88.71,2.98.16.24.22.61.16.88-1.06-.55-1.18-1.23-1.36-2.08-.39-.96-.82-2.13-1.09-3.14-.07-.27.07-.97.07-1.24v-8.4s-.13-1.65-.13-1.65c-.02-.22.78-.28.89-.07.93,1.64-.32,1.54.71,3.13,1.59,2.45-.89,4.65.04,9.6Z"/>
  <path d="M3.48,172.25c.51,1.55,1.41,1.5,1.02,2.08-.36-.1-.91-.45-1.06-.7l-1.07-1.81c-.48-.81-.87-1.6-1.26-2.46-1.02-2.25-1.17-1.38-1.04-3.25.24-3.38-.28-4.2.06-7.21.82,1,.36,1.41,1.04,2.26.39.48.61.86.76,1.42.67,2.6-.02,2.07.36,4.96.08.58.13,1.48.27,1.93l.91,2.8Z"/>
  <path d="M9.92,497.09s1.06,3.21,1.42,3.72l.71,1.01c-.75.03-1.1-.39-1.41-.91l-.92-1.55c-.47-.79-.85-1.61-1.26-2.45l-1.11-2.23-.02-6.75c0-.48.08-.89.25-1.49l.58,1.54c.66,1.74.57.18,1.11,2.15.69,2.54-.02,2.22.36,4.93l.29,2.03Z"/>
  <path d="M9.67,458.67l.4,1.9c.1.49.62,1.38.92,1.77.06.07-.22.38-.3.33-.78-.45-.95-1.24-1.41-2.13-.57-1.12-1.02-2.12-1.43-3.31-.14-.41-.49-1.14-.49-1.56v-9.08c.13-.25.38-.4.42-.16,1.35,1.7-.15,1.78,1.13,2.91.22.19.33.79.38,1.12.39,2.63.08,2.1,0,3.55-.06,1.05-.06,2.17-.05,3.24,0,.33.36,1.05.44,1.43Z"/>
  <path d="M2.31,131.12l.4,1.9c.1.49.62,1.38.92,1.77.06.07-.22.38-.3.33-.78-.45-.96-1.23-1.41-2.13-.56-1.11-1.01-2.13-1.45-3.29-.32-.83-.4-1.52-.37-2.43.07-1.99.03-3.93,0-5.92l-.04-2.77c.41.37.84.84.87,1.15l.18,1.66c.59.39.76.88.84,1.53l.17,1.51c.07.64-.15,1.39-.19,2.04-.05,1.06-.06,2.16-.05,3.24,0,.33.36,1.05.44,1.43Z"/>
  <path d="M5.71,292.57c-.67.46-2.79-2.65-3.12-3.18l-1.93-3.16c-.68-.09-.6-.59-.58-1.13.06-1.3.08-2.59,0-3.88-.07-1.11-.1-2.12.12-3.11.23.94.42,1.64,1.25,2,2,4.41-.05,3.69,2.08,8.57l1.06,2.42,1.13,1.46Z"/>
  <path d="M11.16,420.87c.66,1.01.94.71,1.22,1.88-.98-.19-1.3-.87-1.76-1.6-.82-1.33-1.53-2.65-2.3-4.02l-.98-1.77v-6.75c0-.23.15-.71.25-1.06.84,1.6-.04,1.27,1,2.21.36.33.58.76.7,1.24.67,2.62.04,2.14.45,5.2.31,2.29.9,2.24,1.42,4.68Z"/>
  <path d="M13.07,620.12c-.67.46-2.77-2.61-3.13-3.2-.57-.92-1.35-2.25-1.91-3.04-.11-.15-.68-.46-.68-.68v-5.81c0-.66.11-1.22.23-1.71.19.95.39,1.63,1.23,2,2,4.42-.05,3.7,2.08,8.57l1.06,2.42,1.13,1.46Z"/>
  <path d="M3.8,93.31l.92,1.13c.1.12.24.54.31.75-1.07-.15-1.35-.95-1.82-1.72-.58-.93-1.13-1.85-1.66-2.82l-1.47-2.68c.26-2.95-.28-5.22.09-7.98.98,1.47-.05,1.22,1.06,2.22.36.32.58.76.7,1.24.67,2.62.04,2.14.45,5.2.31,2.28.89,2.25,1.42,4.68Z"/>
  <path d="M3.81,13.66c.59,1.89,1.07,1.02,1.36,2.26-.62-.1-1.06-.28-1.25-.57l-1.07-1.66c-.19-.3-.46-.71-.61-1l-1.15-2.18C.16,8.72,0,9.36.08,7.85.27,4.53-.22,3.4.2.88l.67,1.75.78.92c.34.4.54,1.49.56,2.04l.09,2.84c.07,2.29.96,3.42,1.52,5.23Z"/>
  <path d="M12.15,441.82l.4.4c-.07-.07-.12,1.33-1.99-1.55l-1.11-1.71-.86-1.68c-.35-.68-.81-1.37-1.25-2.07v-6.59c0-.32.14-.78.27-1.25l.52,1.69.8.84c1.1,1.16.29,5.42,1.13,7.42l.85,2.03c.13.93.52,1.75,1.24,2.46Z"/>
  <path d="M11.17,341.21c.59,1.89,1.07,1.02,1.36,2.26-.62-.1-1.06-.28-1.25-.57l-1.07-1.66c-.19-.3-.46-.7-.61-1l-1.15-2.18-.65-1.14c-.11-.2-.46-.69-.46-.91v-5.3c0-.85.08-1.58.21-2.29l.66,1.75.78.92c.34.4.54,1.49.56,2.04l.09,2.84c.07,2.29.96,3.42,1.52,5.23Z"/>
  <path d="M5.08,114.97c-1.16-.4-1.32-1.1-1.87-1.91l-1.05-1.53-.7-1.39c-.2-.39-.41-.81-.65-1.17l-.66-1.04c-.16-.25-.06-.93-.05-1.33.03-1.11.04-2.18-.01-3.26-.06-1.23-.15-2.25.12-3.53.22.51.38,1.05.53,1.6l.8.92c1.24,1.43.24,5,1.18,7.44l.79,2.05c.32.83.49,1.98,1.42,2.43l.14.71Z"/>
  <path d="M1.53,271.61c.31,1.94.82,1.46.53,2.21-1.3-1.01-.89-1.18-1.66-3.15-.27-.7-.29-1.35-.29-2.13l.02-9.82-.1-1.46c-.02-.25.94-.26,1.06-.04.28.53.42,1.45.39,2.14-.05,1.32,1.23,1.3.45,4.57-.19.81-.63,1.76-.64,2.55l-.02,3.45.27,1.68Z"/>
  <path d="M8.62,597.49l.27,1.68c.31,1.94.82,1.46.53,2.21-.54-.47-.89-.83-1.02-1.23l-.63-1.94c-.19-.59-.42-1.23-.42-1.94v-11.4c0-.3.98-.34,1.1-.1.28.55.41,1.43.38,2.15-.05,1.32,1.23,1.31.45,4.57-.19.81-.63,1.76-.64,2.55l-.02,3.45Z"/>
  <path d="M4.53,35.18l.39.36c.06.06-.21.32-.3.31-1.12-.11-1.35-1.48-2.03-2.49-.5-.74-.88-1.41-1.28-2.22-2.27-4.71-.82-.49-1.23-7.12-.07-1.23-.13-2.28.09-3.51,1.26,2.16-.36.46,1.4,2.73.34.44.57,1.6.59,2.19l.11,3.48c.01.42.17,1.32.32,1.75l1.12,3.35c.13.39.48.86.81,1.17ZM1.53,24.93l-.75.11c.29.56.36.7.7,1.18l.04-1.29Z"/>
  <path d="M11.96,362.79l.32.3c.06.06-.21.32-.3.31-1.11-.11-1.34-1.46-2.03-2.49-.49-.74-.87-1.42-1.28-2.22l-.81-1.6c-.12-.23-.52-.74-.52-1.04v-6.9c.01-.31.18-.86.25-1.08,1.2,2.52-.34.5,1.36,2.7.34.44.57,1.62.59,2.21l.1,3.48c.01.42.17,1.33.33,1.79l1.05,3.15c.18.54.54,1.02.94,1.39ZM8.88,352.49l-.75.11c.29.56.36.7.7,1.18l.04-1.29Z"/>
  <path d="M7.46,620.45l.12-1.17c-.2-.95-.23-1.79-.16-2.74l.16-2.06.35,2.29c.26,1.65,1.08,3.12-.46,3.69Z"/>
  <path d="M.13,292.9l.12-1.02c-.16-.98-.25-1.89-.18-2.87l.15-2.07.36,2.29c.26,1.67,1.06,3.09-.44,3.68Z"/>
  <path class="cls-1" d="M74.49,263.28c-.14,0-.46-.16-.45-.3l.04-.72.5.35c.13.09.08.67-.08.66Z"/>
  <path class="cls-1" d="M81.85,590.83c-.14,0-.46-.16-.45-.3l.04-.72.5.35c.13.09.08.67-.08.66Z"/>
  <path class="cls-1" d="M203.41,609.62l.65.91-.47.16c-.12.04-.32-.28-.41-.43-.09-.14.13-.78.23-.64Z"/>
  <path class="cls-1" d="M196.05,282.07l.65.91-.47.16c-.12.04-.33-.3-.41-.42-.09-.14.12-.78.22-.65Z"/>
  <path class="cls-1" d="M33.22,372.57l.03.93c-.34-.01-.65-.57-.56-.84l.1-.33c.02-.07.43.15.43.23Z"/>
  <path class="cls-1" d="M25.87,45.02l.03.94c-.34-.01-.64-.56-.56-.84l.1-.32c.02-.07.43.15.44.23Z"/>
  <path class="cls-1" d="M62.42,263.35c-.21.22-.79-.59-.59-.76l.31-.27c.25.13.5.8.28,1.03Z"/>
  <path class="cls-1" d="M69.78,590.89c-.21.23-.79-.59-.59-.76l.32-.27c.25.16.5.8.27,1.04Z"/>
  <path class="cls-1" d="M57.41,609.46c.18.64.28.8.06,1.43l-.6-1.42h.55Z"/>
  <path class="cls-1" d="M50.05,281.91c.18.64.28.8.06,1.43l-.6-1.42h.55Z"/>
  <rect class="cls-1" x="147.04" y="203.02" width=".62" height="1.17" transform="translate(-27.41 22.98) rotate(-8.16)"/>
  <rect class="cls-1" x="154.4" y="530.57" width=".62" height="1.17" transform="translate(-73.84 27.34) rotate(-8.16)"/>
  <path class="cls-1" d="M184.32,144.52c.04.14-.52.26-.56.14-.12-.32-.11-.9.03-1.4.2.36.46.98.53,1.26Z"/>
  <path class="cls-1" d="M191.68,472.07c.03.14-.52.25-.56.14-.12-.32-.11-.9.03-1.4.2.36.47.98.53,1.26Z"/>
  <path class="cls-1" d="M13.81,65.67c-.38-.09-.88-.87-.56-1.16.34-.19.78.6.56,1.16Z"/>
  <path class="cls-1" d="M21.16,393.22c-.37-.07-.89-.89-.55-1.15.33-.22.78.6.55,1.15Z"/>
  <path class="cls-1" d="M159.9,243.5c-.14.04-.54-.12-.52-.28l.09-.79c.33.12.65.75.43,1.07Z"/>
  <path class="cls-1" d="M167.27,571.08c-.19-.01-.56-.14-.54-.3l.09-.8c.35.16.61.69.45,1.1Z"/>
  <path class="cls-1" d="M33.33,609.96c-.01.29-.1.75-.16.88-.37-.4-.53-.89-.43-1.23.05-.18.6.17.59.35Z"/>
  <path class="cls-1" d="M106.24,591.17l-.5-.42c-.13-.11-.03-.67.04-.76.49.03.67.44.46,1.18Z"/>
  <path class="cls-1" d="M98.88,263.62l-.5-.42c-.13-.11-.03-.67.04-.76.49.03.67.44.46,1.18Z"/>
  <path class="cls-1" d="M25.97,282.39c-.02.34-.09.75-.16.89-.37-.39-.54-.9-.43-1.23.06-.17.6.17.59.34Z"/>
  <path class="cls-1" d="M38.02,25.35c.1.18,0,.59-.19.95-.16-.32-.37-.86-.43-1.15-.02-.08.35-.27.4-.2l.22.4Z"/>
  <path class="cls-1" d="M81.81,610.8c-.51.11-.64-.85-.27-1.18.33.05.6,1.11.27,1.18Z"/>
  <path class="cls-1" d="M45.15,352.5c-.08-.15.64.81.04,1.35-.16-.31-.37-.84-.43-1.15-.02-.08.35-.27.39-.2Z"/>
  <path class="cls-1" d="M74.46,283.25c-.49.11-.64-.84-.26-1.18.33.05.6,1.11.26,1.18Z"/>
  <path class="cls-1" d="M13.9,282.97c-.01.09-.32.25-.37.18l-.26-.33c-.11-.13-.18-.74-.02-.8.31-.12.7.64.66.95Z"/>
  <path class="cls-1" d="M21.25,610.51c-.01.09-.32.26-.37.19l-.26-.33c-.11-.13-.17-.73-.03-.81.32-.11.71.64.66.95Z"/>
  <path class="cls-1" d="M191.7,373.2c-.22.5-.27.51-.32.13-.25-.31-.43-.97-.19-1,.27-.03.53.61.5.87Z"/>
  <path class="cls-1" d="M50.14,6.25c-.3.13-.63-.78-.38-.94.34-.22.76.77.38.94Z"/>
  <path class="cls-1" d="M86.92,263.36c-.29-.03-.54-.05-.57-.11l-.39-.74.59-.3.36,1.15Z"/>
  <path class="cls-1" d="M57.49,333.8c-.3.13-.63-.78-.38-.94.34-.22.77.77.38.94Z"/>
  <path class="cls-1" d="M184.34,45.65c-.23.49-.27.5-.33.13-.25-.34-.41-.93-.19-1.02.31.02.53.6.52.89Z"/>
  <polygon class="cls-1" points="94.28 590.92 93.71 590.82 93.32 590.05 93.91 589.76 94.28 590.92"/>
  <path class="cls-1" d="M62.31,283.28l-.56-.58c-.11-.12.17-.64.31-.59.32.11.39.67.25,1.17Z"/>
  <path class="cls-1" d="M69.66,610.84l-.56-.59c-.11-.11.17-.65.31-.59.32.12.39.66.24,1.18Z"/>
  <path class="cls-1" d="M196.21,262.44c.09.3.12.84.01,1.13-.23-.13-.43-.58-.55-.97l.54-.16Z"/>
  <rect class="cls-1" x="203.13" y="471.2" width=".56" height="1.12" transform="translate(-94.73 53.37) rotate(-12.15)"/>
  <rect class="cls-1" x="195.78" y="143.65" width=".56" height="1.12" transform="translate(-25.96 44.49) rotate(-12.15)"/>
  <path class="cls-1" d="M203.57,589.99c.08.31.11.84,0,1.14-.23-.13-.43-.58-.55-.97l.54-.16Z"/>
  <path class="cls-1" d="M203.68,372.65l-.02.92c-.26-.13-.59-.47-.56-.67l.09-.53c.02-.11.49.17.49.29Z"/>
  <path class="cls-1" d="M196.32,45.1v.91c-.28-.13-.61-.48-.57-.68l.09-.52c.02-.11.49.16.48.29Z"/>
  <path class="cls-1" d="M13.5,5.27c.1.57.14,1.1-.06,1.22-.22.14-.44-.46-.53-.95l.58-.27Z"/>
  <path class="cls-1" d="M50.16,263.39c-.41-.29-.52-.58-.43-1.13.15.09.4.25.5.37s0,.45-.07.75Z"/>
  <path class="cls-1" d="M57.52,590.94c-.41-.29-.52-.58-.43-1.13.15.09.4.25.5.37s0,.45-.07.75Z"/>
  <path class="cls-1" d="M20.85,332.82c.1.57.14,1.09-.06,1.22-.22.14-.44-.46-.53-.95l.58-.27Z"/>
  <path class="cls-1" d="M38.2,282.97c-.01.08-.41.24-.45.17-.14-.26-.25-.75-.27-1.18.54-.02.77.7.72,1.01Z"/>
  <path class="cls-1" d="M203.82,491.19l.11.8c-.7.02-.9-.73-.74-1.02.08-.16.61.04.63.22Z"/>
  <polygon class="cls-1" points="86.52 283.57 86 282.34 86.67 282.01 86.52 283.57"/>
  <polygon class="cls-1" points="93.88 611.12 93.36 609.9 94.02 609.57 93.88 611.12"/>
  <path class="cls-1" d="M45.54,610.53c-.04.07-.36.22-.41.16-.18-.21-.35-.86-.24-1.11.35-.21.8.67.65.95Z"/>
  <path class="cls-1" d="M196.46,163.64l.11.8c-.7.03-.91-.71-.74-1.03.08-.15.6.06.63.23Z"/>
  <path class="cls-1" d="M13.87,263.24l-.32.08c-.21.05-.59-.89-.35-1.18.49.06.72.7.67,1.11Z"/>
  <path class="cls-1" d="M21.23,590.79l-.32.08c-.21.05-.59-.88-.35-1.19.49.07.72.7.67,1.11Z"/>
  <polygon class="cls-1" points="111 262.33 110.9 263.8 110.26 262.65 111 262.33"/>
  <polygon class="cls-1" points="118.36 589.88 118.25 591.35 117.62 590.21 118.36 589.88"/>
  <path class="cls-1" d="M171.69,64.57c.47.25.38.5.19,1.39l-.51-1.05c-.04-.09.24-.39.32-.35Z"/>
  <path class="cls-1" d="M179.4,392.54l-.16.98-.51-1.05c-.04-.09.24-.39.32-.35.11.06.37.3.35.42Z"/>
  <path class="cls-1" d="M1.53,24.93l-.04,1.29c-.35-.48-.41-.63-.7-1.18l.75-.11Z"/>
  <path class="cls-1" d="M8.88,352.49l-.04,1.29c-.35-.49-.41-.63-.7-1.18l.75-.11Z"/>
</svg>