<?xml version="1.0" encoding="UTF-8"?>
<svg id="Livello_1" data-name="Livello 1" xmlns="http://www.w3.org/2000/svg" viewBox="0 0 79.42 46.58">
  <defs>
    <style>
      .cls-1 {
        font-size: 6.56px;
      }

      .cls-1, .cls-2 {
        fill: #1d1d1b;
        font-family: GoogleSans-Medium, 'Google Sans';
        font-weight: 500;
      }

      .cls-2 {
        font-size: 2.87px;
      }
    </style>
  </defs>
  <text class="cls-1" transform="translate(29.24 40.05)"><tspan x="0" y="0">N.I.N.A</tspan></text>
  <text class="cls-2" transform="translate(17.17 44.84)"><tspan x="0" y="0">NÈ INTELLIGENTE NÈ ARTIFICIALE</tspan></text>
  <g>
    <path d="M53.73,6.88c-.08.04-.17.08-.25.14-.78.52-1.41,1.3-1.91,2.35-.52,1.11-.79,2.59-.79,4.42,0,.98.07,2.05.21,3.23.14,1.18.29,2.37.46,3.57s.32,2.35.46,3.42c.14,1.08.21,2.02.21,2.8,0,1.66-.39,2.49-1.18,2.49-.51,0-.92-.45-1.21-1.34-.21-.64-.43-1.5-.66-2.59-.23-1.09-.44-2.27-.64-3.55s-.38-2.55-.54-3.81c-.16-1.26-.3-2.4-.43-3.44-.13-1.03-.22-1.83-.29-2.38-.23-2.11-.83-3.64-1.79-4.59-.96-.95-2.18-1.42-3.65-1.42s-2.78.41-3.86,1.25c-.06.04-.11.09-.17.13-.74.61-1.81.53-2.5-.15-.16-.16-.33-.3-.51-.42-.81-.54-1.71-.81-2.69-.81s-1.85.27-2.67.81c-.15.1-.29.22-.43.35-.68.65-1.74.61-2.46,0,0,0-.01,0-.02-.01-.93-.77-2.03-1.15-3.31-1.15-.96,0-1.86.26-2.69.77-.83.52-1.51,1.33-2.03,2.43-.52,1.11-.79,2.59-.79,4.42,0,.98.07,2.05.21,3.23.14,1.18.29,2.37.46,3.57.17,1.2.32,2.35.46,3.42.14,1.08.21,2.02.21,2.8,0,1.66-.39,2.49-1.18,2.49-.51,0-.92-.45-1.21-1.34-.21-.64-.43-1.5-.66-2.59-.23-1.09-.44-2.27-.64-3.55s-.38-2.55-.54-3.81c-.16-1.26-.3-2.4-.43-3.44-.13-1.03-.22-1.83-.29-2.38-.23-2.11-.83-3.64-1.79-4.59-.96-.95-2.18-1.42-3.65-1.42s-2.78.41-3.86,1.25c-1.08.83-1.91,1.98-2.48,3.44-.58,1.46-.86,3.12-.86,4.98,0,1.64.2,3.27.61,4.87.41,1.62.95,3.14,1.63,4.58.68,1.45,1.43,2.72,2.22,3.83.8,1.11,1.6,1.98,2.39,2.61.79.62,1.5.94,2.14.94.38,0,.72-.12,1.01-.38.29-.26.43-.64.43-1.15,0-.15-.03-.34-.08-.58-.05-.23-.19-.6-.4-1.1-.21-.5-.54-1.23-.99-2.16-.3-.66-.54-1.33-.72-2s-.2-1.23-.05-1.7c.15-.46.56-.69,1.25-.69.23,0,.46.09.69.27.23.18.42.68.59,1.48.17.77.41,1.62.7,2.53.3.91.69,1.79,1.17,2.62.48.83,1.07,1.52,1.76,2.05.69.53,1.52.8,2.48.8s2.02-.32,3.07-.96c1.05-.63,2.05-1.51,3.02-2.62.97-1.11,1.84-2.41,2.59-3.87.31-.6.48-1.29.74-1.93.1.53.16,1.14.27,1.65.37,1.74.74,3.25,1.11,4.53.3,1,.68,1.78,1.14,2.35.46.56,1.08.84,1.87.84s1.41-.28,1.87-.84c.46-.57.84-1.35,1.14-2.35.36-1.28.73-2.79,1.1-4.53.07-.31.1-.68.17-1,.18.44.28.93.48,1.35.68,1.45,1.43,2.72,2.22,3.83.8,1.11,1.6,1.98,2.39,2.61.79.62,1.5.94,2.14.94.38,0,.72-.12,1.01-.38.29-.26.43-.64.43-1.15,0-.15-.03-.34-.08-.58-.05-.23-.19-.6-.4-1.1-.21-.5-.54-1.23-.99-2.16-.3-.66-.54-1.33-.72-2s-.2-1.23-.05-1.7c.15-.46.56-.69,1.25-.69.23,0,.46.09.69.27.23.18.42.68.59,1.48.17.77.41,1.62.7,2.53.3.91.69,1.79,1.17,2.62.48.83,1.07,1.52,1.76,2.05.69.53,1.52.8,2.48.8s2.02-.32,3.07-.96c.39-.24.77-.53,1.15-.86.74-.64,1.86-.62,2.54.09.28.29.54.55.78.77.3.26.59.48.86.67.28.2.57.29.86.29.41,0,.78-.17,1.12-.51.34-.34.51-.78.51-1.31,0-.43-.11-.96-.32-1.6-.21-.64-.32-1.2-.32-1.66,0-.32.09-.57.26-.75.17-.18.5-.31.99-.4.49-.09,1.22-.13,2.21-.13,1.34,0,2.27.09,2.77.26.5.17.75.52.75,1.02,0,.47-.11,1.02-.32,1.66-.21.64-.32,1.17-.32,1.6,0,.53.17.97.51,1.31.34.34.71.51,1.12.51.3,0,.59-.09.88-.29.29-.19.57-.41.85-.67.6-.53,1.28-1.27,2.05-2.2.77-.94,1.51-2.05,2.21-3.31.7-1.27,1.29-2.66,1.76-4.16.47-1.5.71-3.09.71-4.78s-.33-3.07-.99-4.41c-.66-1.34-1.58-2.52-2.75-3.52-1.17-1-2.54-1.77-4.11-2.32-.16-.05-.35-.03-.51-.08l.05-.05s-8.08-3.08-15.02-.43c-.06.02-.11.04-.16.07l-.8.38ZM67.9,22.85c-.51.11-1.43.15-2.75.12-1.32.02-2.24-.02-2.75-.12s-.77-.49-.77-1.16c0-.11.01-.28.03-.47s.07-.38.14-.55c.02-.06.05-.11.06-.17.06-.21.04-.43.08-.65.06-.17.07-.33.14-.51.2-.48.54-.89,1.02-1.23.48-.34,1.14-.52,2-.52s1.55.17,2.03.52c.48.34.83.75,1.04,1.23.21.48.35.95.4,1.37.05.44.08.77.08.98,0,.66-.25,1.05-.77,1.16Z"/>
    <path d="M32.24,5.45c-.82,0-1.49-.24-1.98-.72-.5-.48-.75-1.13-.75-1.94s.25-1.44.75-1.9,1.16-.69,1.98-.69,1.48.22,1.98.69c.5.46.75,1.09.75,1.9s-.25,1.45-.75,1.94c-.5.48-1.16.72-1.98.72Z"/>
  </g>
</svg>