<?xml version="1.0" encoding="UTF-8"?>
<svg id="Livello_1" xmlns="http://www.w3.org/2000/svg" version="1.1" viewBox="0 0 56.22 38.79">
  <!-- Generator: Adobe Illustrator 30.2.1, SVG Export Plug-In . SVG Version: 2.1.1 Build 1)  -->
  <defs>
    <style>
      .st0, .st1 {
        isolation: isolate;
      }

      .st1 {
        fill: #1d1d1b;
        font-family: HankenGrotesk-Medium, 'Hanken Grotesk';
        font-size: 3.39px;
        font-weight: 500;
      }
    </style>
  </defs>
  <g class="st0">
    <text class="st1" transform="translate(1.81 34.65)"><tspan x="0" y="0">NÉ INTELLIGENTE NÉ ARTIFICIALE</tspan></text>
  </g>
  <g>
    <path d="M25.62,9.49c-.35-1.26-.66-2.35-.66-4.68,0-1.46-1.18-2.64-2.64-2.64s-2.64,1.18-2.64,2.64c0,3.06.45,4.68.85,6.1.35,1.26.66,2.35.66,4.68s-.3,3.42-.66,4.68c-.4,1.43-.85,3.04-.85,6.1,0,1.46,1.18,2.64,2.64,2.64s2.64-1.18,2.64-2.64c0-2.33.3-3.42.66-4.68.4-1.43.85-3.04.85-6.1s-.45-4.68-.85-6.1Z"/>
    <path d="M19.34,9.49c-.35-1.26-.66-2.35-.66-4.68,0-1.46-1.18-2.64-2.64-2.64s-2.64,1.18-2.64,2.64c0,3.06.45,4.68.85,6.1.35,1.26.66,2.35.66,4.68v.53c-.26-.62-.58-1.31-.97-2.07-1.52-2.98-2.73-4.36-3.79-5.58-.98-1.13-1.84-2.11-3.07-4.51-.25-.49-.63-.86-1.08-1.11-.47-.41-1.07-.67-1.75-.67-1.46,0-2.64,1.18-2.64,2.64,0,3.06.45,4.68.85,6.1.35,1.26.66,2.35.66,4.68s-.3,3.42-.66,4.68c-.4,1.43-.85,3.04-.85,6.1,0,1.46,1.18,2.64,2.64,2.64s2.64-1.18,2.64-2.64c0-2.33.3-3.42.66-4.68.4-1.43.85-3.04.85-6.1,0-.23,0-.43-.01-.64.26.43.53.93.83,1.5,1.23,2.41,1.52,3.67,1.86,5.13.36,1.57.78,3.35,2.3,6.34.47.91,1.39,1.44,2.36,1.44.4,0,.82-.09,1.2-.29.37-.19.67-.46.91-.78.51-.48.84-1.16.84-1.92,0-2.33.3-3.42.66-4.68.4-1.43.85-3.04.85-6.1s-.45-4.68-.85-6.1h-.01Z"/>
    <path d="M54.42,25.51c-1.23-2.41-1.52-3.67-1.86-5.13-.36-1.57-.78-3.35-2.3-6.34s-2.73-4.36-3.79-5.58c-.98-1.13-1.84-2.11-3.07-4.51-.27-.52-.69-.91-1.18-1.15-.46-.39-1.05-.63-1.69-.63-1.46,0-2.64,1.18-2.64,2.64,0,3.06.45,4.68.85,6.1.35,1.26.66,2.35.66,4.68,0,.23,0,.44,0,.64-.27-.66-.6-1.37-1.02-2.19-1.52-2.98-2.73-4.36-3.79-5.58-.98-1.13-1.84-2.11-3.07-4.51-.31-.61-.82-1.03-1.41-1.26-.44-.33-.98-.53-1.57-.53-1.46,0-2.64,1.18-2.64,2.64,0,3.06.45,4.68.85,6.1.35,1.26.66,2.35.66,4.68s-.3,3.42-.66,4.68c-.4,1.43-.85,3.04-.85,6.1,0,1.46,1.18,2.64,2.64,2.64s2.64-1.18,2.64-2.64c0-2.33.3-3.42.66-4.68.4-1.43.85-3.04.85-6.1,0-.32,0-.62-.02-.91.31.5.63,1.07.99,1.77,1.23,2.41,1.52,3.67,1.86,5.13.36,1.57.78,3.35,2.3,6.34.47.91,1.39,1.44,2.36,1.44.4,0,.82-.09,1.2-.29.34-.17.62-.41.84-.69.57-.48.95-1.2.95-2.01,0-.5.02-.93.04-1.33h4.92c.09,0,.18-.02.27-.03.32.83.73,1.78,1.3,2.9.47.91,1.39,1.44,2.36,1.44.4,0,.82-.09,1.2-.29,1.3-.66,1.82-2.26,1.15-3.56l.02.02ZM46.94,19.76h-2.62c.21-1.06.37-2.36.37-4.17,0-.26,0-.49,0-.73.27.45.56.97.88,1.59.72,1.4,1.11,2.42,1.39,3.31h-.01Z"/>
  </g>
</svg>