<?xml version="1.0" encoding="UTF-8"?>
<svg id="Livello_1" xmlns="http://www.w3.org/2000/svg" version="1.1" viewBox="0 0 56.22 36.3">
  <!-- Generator: Adobe Illustrator 30.2.1, SVG Export Plug-In . SVG Version: 2.1.1 Build 1)  -->
  <defs>
    <style>
      .st0 {
        fill: #1d1d1b;
      }

      .st1 {
        isolation: isolate;
      }
    </style>
  </defs>
  <g>
    <path d="M25.62,9.49c-.35-1.26-.66-2.35-.66-4.68,0-1.46-1.18-2.64-2.64-2.64s-2.64,1.18-2.64,2.64c0,3.06.45,4.68.85,6.1.35,1.26.66,2.35.66,4.68s-.3,3.42-.66,4.68c-.4,1.43-.85,3.04-.85,6.1,0,1.46,1.18,2.64,2.64,2.64s2.64-1.18,2.64-2.64c0-2.33.3-3.42.66-4.68.4-1.43.85-3.04.85-6.1s-.45-4.68-.85-6.1Z"/>
    <path d="M19.34,9.49c-.35-1.26-.66-2.35-.66-4.68,0-1.46-1.18-2.64-2.64-2.64s-2.64,1.18-2.64,2.64c0,3.06.45,4.68.85,6.1.35,1.26.66,2.35.66,4.68v.53c-.26-.62-.58-1.31-.97-2.07-1.52-2.98-2.73-4.36-3.79-5.58-.98-1.13-1.84-2.11-3.07-4.51-.25-.49-.63-.86-1.08-1.11-.47-.41-1.07-.67-1.75-.67-1.46,0-2.64,1.18-2.64,2.64,0,3.06.45,4.68.85,6.1.35,1.26.66,2.35.66,4.68s-.3,3.42-.66,4.68c-.4,1.43-.85,3.04-.85,6.1,0,1.46,1.18,2.64,2.64,2.64s2.64-1.18,2.64-2.64c0-2.33.3-3.42.66-4.68.4-1.43.85-3.04.85-6.1,0-.23,0-.43-.01-.64.26.43.53.93.83,1.5,1.23,2.41,1.52,3.67,1.86,5.13.36,1.57.78,3.35,2.3,6.34.47.91,1.39,1.44,2.36,1.44.4,0,.82-.09,1.2-.29.37-.19.67-.46.91-.78.51-.48.84-1.16.84-1.92,0-2.33.3-3.42.66-4.68.4-1.43.85-3.04.85-6.1s-.45-4.68-.85-6.1h-.01Z"/>
    <path d="M54.42,25.51c-1.23-2.41-1.52-3.67-1.86-5.13-.36-1.57-.78-3.35-2.3-6.34s-2.73-4.36-3.79-5.58c-.98-1.13-1.84-2.11-3.07-4.51-.27-.52-.69-.91-1.18-1.15-.46-.39-1.05-.63-1.69-.63-1.46,0-2.64,1.18-2.64,2.64,0,3.06.45,4.68.85,6.1.35,1.26.66,2.35.66,4.68,0,.23,0,.44,0,.64-.27-.66-.6-1.37-1.02-2.19-1.52-2.98-2.73-4.36-3.79-5.58-.98-1.13-1.84-2.11-3.07-4.51-.31-.61-.82-1.03-1.41-1.26-.44-.33-.98-.53-1.57-.53-1.46,0-2.64,1.18-2.64,2.64,0,3.06.45,4.68.85,6.1.35,1.26.66,2.35.66,4.68s-.3,3.42-.66,4.68c-.4,1.43-.85,3.04-.85,6.1,0,1.46,1.18,2.64,2.64,2.64s2.64-1.18,2.64-2.64c0-2.33.3-3.42.66-4.68.4-1.43.85-3.04.85-6.1,0-.32,0-.62-.02-.91.31.5.63,1.07.99,1.77,1.23,2.41,1.52,3.67,1.86,5.13.36,1.57.78,3.35,2.3,6.34.47.91,1.39,1.44,2.36,1.44.4,0,.82-.09,1.2-.29.34-.17.62-.41.84-.69.57-.48.95-1.2.95-2.01,0-.5.02-.93.04-1.33h4.92c.09,0,.18-.02.27-.03.32.83.73,1.78,1.3,2.9.47.91,1.39,1.44,2.36,1.44.4,0,.82-.09,1.2-.29,1.3-.66,1.82-2.26,1.15-3.56l.02.02ZM46.94,19.76h-2.62c.21-1.06.37-2.36.37-4.17,0-.26,0-.49,0-.73.27.45.56.97.88,1.59.72,1.4,1.11,2.42,1.39,3.31h-.01Z"/>
  </g>
  <g class="st1">
    <g class="st1">
      <path class="st0" d="M2.07,34.65v-2.36h.36l1.18,1.92h-.08v-1.92h.34v2.36h-.37l-1.17-1.92h.08v1.92h-.35Z"/>
      <path class="st0" d="M4.37,34.65v-2.36h1.56v.31h-1.22v.69h1.12v.31h-1.12v.75h1.22v.31h-1.56ZM5.03,32.07l-.46-.48h.35l.35.48h-.25Z"/>
      <path class="st0" d="M7.23,34.65v-2.36h.35v2.36h-.35Z"/>
      <path class="st0" d="M8.08,34.65v-2.36h.36l1.18,1.92h-.08v-1.92h.34v2.36h-.37l-1.17-1.92h.08v1.92h-.35Z"/>
      <path class="st0" d="M10.96,34.65v-2.05h-.77v-.31h1.89v.31h-.77v2.05h-.35Z"/>
      <path class="st0" d="M12.38,34.65v-2.36h1.56v.31h-1.22v.69h1.12v.31h-1.12v.75h1.22v.31h-1.56Z"/>
      <path class="st0" d="M14.35,34.65v-2.36h.35v2.05h1.04v.31h-1.39Z"/>
      <path class="st0" d="M16.04,34.65v-2.36h.35v2.05h1.04v.31h-1.39Z"/>
      <path class="st0" d="M17.73,34.65v-2.36h.35v2.36h-.35Z"/>
      <path class="st0" d="M19.57,34.69c-.21,0-.4-.05-.56-.15-.16-.1-.29-.25-.38-.43s-.14-.4-.14-.64.05-.46.14-.64c.09-.18.22-.33.39-.43.17-.1.36-.15.58-.15.24,0,.45.06.63.18.18.12.3.29.38.5l-.32.12c-.06-.15-.14-.26-.26-.34-.12-.08-.26-.12-.43-.12-.15,0-.29.04-.4.11s-.2.18-.26.31c-.06.13-.09.29-.09.48s.03.34.09.48c.06.13.15.24.26.31.11.07.25.11.4.11.08,0,.16-.01.24-.03.08-.02.16-.06.23-.12.07-.05.13-.13.17-.22.04-.1.06-.22.06-.37v-.16l.08.24h-.67v-.31h.9v1.25h-.3l-.05-.43.06.04c-.04.1-.1.18-.17.25-.07.06-.16.11-.26.14-.1.03-.2.05-.31.05Z"/>
      <path class="st0" d="M21.06,34.65v-2.36h1.56v.31h-1.22v.69h1.12v.31h-1.12v.75h1.22v.31h-1.56Z"/>
      <path class="st0" d="M23.04,34.65v-2.36h.36l1.18,1.92h-.08v-1.92h.34v2.36h-.37l-1.17-1.92h.08v1.92h-.35Z"/>
      <path class="st0" d="M25.91,34.65v-2.05h-.77v-.31h1.89v.31h-.77v2.05h-.35Z"/>
      <path class="st0" d="M27.33,34.65v-2.36h1.56v.31h-1.22v.69h1.12v.31h-1.12v.75h1.22v.31h-1.56Z"/>
      <path class="st0" d="M30.19,34.65v-2.36h.36l1.18,1.92h-.08v-1.92h.34v2.36h-.37l-1.17-1.92h.08v1.92h-.35Z"/>
      <path class="st0" d="M32.5,34.65v-2.36h1.56v.31h-1.22v.69h1.12v.31h-1.12v.75h1.22v.31h-1.56ZM33.15,32.07l-.46-.48h.35l.35.48h-.25Z"/>
      <path class="st0" d="M35.15,34.65l.92-2.36h.27l.92,2.36h-.38l-.67-1.86-.67,1.86h-.38ZM35.69,34.12l.1-.31h.81l.12.31h-1.03Z"/>
      <path class="st0" d="M37.55,34.65v-2.36h.73c.19,0,.34.03.45.08.12.05.2.13.26.23.05.1.08.22.08.36,0,.2-.06.36-.17.48s-.28.18-.5.2c-.04,0-.08,0-.13,0h-.37v1.01h-.35ZM37.9,33.33h.35c.09,0,.18-.01.25-.04.07-.02.13-.06.17-.12.04-.05.06-.13.06-.22s-.02-.17-.06-.22c-.04-.05-.1-.09-.17-.11s-.15-.03-.25-.03h-.35v.74ZM38.86,34.65l-.61-1.05.35-.04.65,1.09h-.4Z"/>
      <path class="st0" d="M40.1,34.65v-2.05h-.77v-.31h1.89v.31h-.77v2.05h-.35Z"/>
      <path class="st0" d="M41.52,34.65v-2.36h.35v2.36h-.35Z"/>
      <path class="st0" d="M42.37,34.65v-2.36h1.56v.31h-1.21v.69h1.05v.31h-1.05v1.05h-.35Z"/>
      <path class="st0" d="M44.28,34.65v-2.36h.35v2.36h-.35Z"/>
      <path class="st0" d="M46.14,34.69c-.22,0-.41-.05-.58-.15s-.3-.25-.39-.43-.14-.4-.14-.64.05-.46.14-.64c.09-.18.22-.33.39-.43.17-.1.36-.15.58-.15.24,0,.45.06.63.18.18.12.3.29.38.5l-.32.12c-.06-.15-.14-.26-.26-.34-.12-.08-.26-.12-.43-.12-.15,0-.29.04-.4.11s-.2.18-.26.31c-.06.13-.09.29-.09.48s.03.34.09.48c.06.13.15.24.26.31.11.07.25.11.4.11.17,0,.31-.04.43-.12.12-.08.2-.2.26-.34l.32.12c-.08.21-.2.38-.38.5-.18.12-.39.18-.63.18Z"/>
      <path class="st0" d="M47.53,34.65v-2.36h.35v2.36h-.35Z"/>
      <path class="st0" d="M48.18,34.65l.92-2.36h.27l.92,2.36h-.38l-.67-1.86-.67,1.86h-.38ZM48.72,34.12l.1-.31h.81l.12.31h-1.03Z"/>
      <path class="st0" d="M50.58,34.65v-2.36h.35v2.05h1.04v.31h-1.39Z"/>
      <path class="st0" d="M52.27,34.65v-2.36h1.56v.31h-1.22v.69h1.12v.31h-1.12v.75h1.22v.31h-1.56Z"/>
    </g>
  </g>
</svg>